<svg xmlns="http://www.w3.org/2000/svg" xmlns:xlink="http://www.w3.org/1999/xlink" width="493" height="471" viewBox="0 0 493 471"><defs><style>.a{fill:none;}.b{fill:#fff;stroke:#e90000;stroke-width:5px;}.c{font-size:24px;}.c,.i{font-family:Ebrima-Bold, Ebrima;font-weight:700;}.c,.i,.j{letter-spacing:0.011em;}.d,.j{fill:#e90000;}.e{isolation:isolate;clip-path:url(#c);}.f{clip-path:url(#d);}.g{fill:#efefef;}.h{fill:#fffffe;}.i{font-size:22px;}.j{font-size:18px;font-family:Ebrima;}.k{fill:#c1bbbb;}.l{fill:#bae8e8;}.m{stroke:none;}.n{filter:url(#a);}</style><filter id="a" x="0" y="0" width="418" height="471" filterUnits="userSpaceOnUse"><feOffset dy="3" input="SourceAlpha"/><feGaussianBlur stdDeviation="3" result="b"/><feFlood flood-opacity="0.161"/><feComposite operator="in" in2="b"/><feComposite in="SourceGraphic"/></filter><clipPath id="c"><rect class="a" width="390" height="379"/></clipPath><clipPath id="d"><rect class="a" width="390" height="696"/></clipPath></defs><g transform="translate(9 6)"><g transform="translate(-382 -398)"><g class="n" transform="matrix(1, 0, 0, 1, 373, 392)"><g class="b" transform="translate(9 6)"><rect class="m" width="400" height="453"/><rect class="a" x="2.5" y="2.5" width="395" height="448"/></g></g><text class="c" transform="translate(518 447)"><tspan x="0" y="0">Your Lists</tspan></text><path class="d" d="M18,3.375A14.625,14.625,0,1,0,32.625,18,14.623,14.623,0,0,0,18,3.375Zm6.363,15.75H19.125v5.238a1.125,1.125,0,0,1-2.25,0V19.125H11.637a1.125,1.125,0,0,1,0-2.25h5.238V11.637a1.125,1.125,0,0,1,2.25,0v5.238h5.238a1.125,1.125,0,0,1,0,2.25Z" transform="translate(693.35 420.5)"/><g class="e" transform="translate(387 469)"><g class="f"><g transform="translate(-387 -484)"><rect class="g" width="390" height="81" transform="translate(387 484)"/><rect class="h" width="390" height="81" transform="translate(387 565)"/><rect class="g" width="390" height="81" transform="translate(387 646)"/><rect class="h" width="390" height="81" transform="translate(387 727)"/><text class="i" transform="translate(463 519)"><tspan x="0" y="0">List Name</tspan></text><text class="i" transform="translate(463 600)"><tspan x="0" y="0">List Name</tspan></text><text class="i" transform="translate(463 681)"><tspan x="0" y="0">List Name</tspan></text><text class="i" transform="translate(463 762)"><tspan x="0" y="0">List Name</tspan></text><text class="j" transform="translate(463 543)"><tspan x="0" y="0">8 Risk Control</tspan></text><text class="j" transform="translate(463 624)"><tspan x="0" y="0">8 Risk Control</tspan></text><text class="j" transform="translate(463 705)"><tspan x="0" y="0">8 Risk Control</tspan></text><text class="j" transform="translate(463 786)"><tspan x="0" y="0">8 Risk Control</tspan></text><path class="k" d="M16.147,9.188h-.969V6.234A6.193,6.193,0,0,0,9.042,0,6.193,6.193,0,0,0,2.907,6.234V9.188H1.938A1.954,1.954,0,0,0,0,11.156v7.875A1.954,1.954,0,0,0,1.938,21h14.21a1.954,1.954,0,0,0,1.938-1.969V11.156A1.954,1.954,0,0,0,16.147,9.188Zm-4.2,0H6.136V6.234a2.907,2.907,0,1,1,5.813,0Z" transform="translate(698 503)"/><path class="k" d="M16.147,9.188h-.969V6.234A6.193,6.193,0,0,0,9.042,0,6.193,6.193,0,0,0,2.907,6.234V9.188H1.938A1.954,1.954,0,0,0,0,11.156v7.875A1.954,1.954,0,0,0,1.938,21h14.21a1.954,1.954,0,0,0,1.938-1.969V11.156A1.954,1.954,0,0,0,16.147,9.188Zm-4.2,0H6.136V6.234a2.907,2.907,0,1,1,5.813,0Z" transform="translate(698 584)"/><path class="k" d="M16.147,9.188h-.969V6.234A6.193,6.193,0,0,0,9.042,0,6.193,6.193,0,0,0,2.907,6.234V9.188H1.938A1.954,1.954,0,0,0,0,11.156v7.875A1.954,1.954,0,0,0,1.938,21h14.21a1.954,1.954,0,0,0,1.938-1.969V11.156A1.954,1.954,0,0,0,16.147,9.188Zm-4.2,0H6.136V6.234a2.907,2.907,0,1,1,5.813,0Z" transform="translate(698 665)"/><path class="k" d="M16.147,9.188h-.969V6.234A6.193,6.193,0,0,0,9.042,0,6.193,6.193,0,0,0,2.907,6.234V9.188H1.938A1.954,1.954,0,0,0,0,11.156v7.875A1.954,1.954,0,0,0,1.938,21h14.21a1.954,1.954,0,0,0,1.938-1.969V11.156A1.954,1.954,0,0,0,16.147,9.188Zm-4.2,0H6.136V6.234a2.907,2.907,0,1,1,5.813,0Z" transform="translate(698 746)"/><rect class="d" width="32" height="29" rx="7" transform="translate(412 507)"/><rect class="d" width="32" height="29" rx="7" transform="translate(412 669)"/><path class="h" d="M6.906,18.24.3,12.166a.882.882,0,0,1,0-1.321L1.736,9.523a1.081,1.081,0,0,1,1.438,0l4.452,4.092L17.16,4.851a1.081,1.081,0,0,1,1.438,0l1.438,1.321a.882.882,0,0,1,0,1.321L8.344,18.24A1.081,1.081,0,0,1,6.906,18.24Z" transform="translate(417.8 508.5)"/><path class="h" d="M6.906,18.24.3,12.166a.882.882,0,0,1,0-1.321L1.736,9.523a1.081,1.081,0,0,1,1.438,0l4.452,4.092L17.16,4.851a1.081,1.081,0,0,1,1.438,0l1.438,1.321a.882.882,0,0,1,0,1.321L8.344,18.24A1.081,1.081,0,0,1,6.906,18.24Z" transform="translate(417.8 670.5)"/></g><g transform="translate(-387 -140)"><rect class="g" width="390" height="81" transform="translate(387 484)"/><rect class="h" width="390" height="81" transform="translate(387 565)"/><rect class="g" width="390" height="81" transform="translate(387 646)"/><rect class="h" width="390" height="81" transform="translate(387 727)"/><text class="i" transform="translate(463 519)"><tspan x="0" y="0">List Name</tspan></text><text class="i" transform="translate(463 600)"><tspan x="0" y="0">List Name</tspan></text><text class="i" transform="translate(463 681)"><tspan x="0" y="0">List Name</tspan></text><text class="i" transform="translate(463 762)"><tspan x="0" y="0">List Name</tspan></text><text class="j" transform="translate(463 543)"><tspan x="0" y="0">8 Risk Control</tspan></text><text class="j" transform="translate(463 624)"><tspan x="0" y="0">8 Risk Control</tspan></text><text class="j" transform="translate(463 705)"><tspan x="0" y="0">8 Risk Control</tspan></text><text class="j" transform="translate(463 786)"><tspan x="0" y="0">8 Risk Control</tspan></text><path class="k" d="M16.147,9.188h-.969V6.234A6.193,6.193,0,0,0,9.042,0,6.193,6.193,0,0,0,2.907,6.234V9.188H1.938A1.954,1.954,0,0,0,0,11.156v7.875A1.954,1.954,0,0,0,1.938,21h14.21a1.954,1.954,0,0,0,1.938-1.969V11.156A1.954,1.954,0,0,0,16.147,9.188Zm-4.2,0H6.136V6.234a2.907,2.907,0,1,1,5.813,0Z" transform="translate(698 503)"/><path class="k" d="M16.147,9.188h-.969V6.234A6.193,6.193,0,0,0,9.042,0,6.193,6.193,0,0,0,2.907,6.234V9.188H1.938A1.954,1.954,0,0,0,0,11.156v7.875A1.954,1.954,0,0,0,1.938,21h14.21a1.954,1.954,0,0,0,1.938-1.969V11.156A1.954,1.954,0,0,0,16.147,9.188Zm-4.2,0H6.136V6.234a2.907,2.907,0,1,1,5.813,0Z" transform="translate(698 584)"/><path class="k" d="M16.147,9.188h-.969V6.234A6.193,6.193,0,0,0,9.042,0,6.193,6.193,0,0,0,2.907,6.234V9.188H1.938A1.954,1.954,0,0,0,0,11.156v7.875A1.954,1.954,0,0,0,1.938,21h14.21a1.954,1.954,0,0,0,1.938-1.969V11.156A1.954,1.954,0,0,0,16.147,9.188Zm-4.2,0H6.136V6.234a2.907,2.907,0,1,1,5.813,0Z" transform="translate(698 665)"/><path class="k" d="M16.147,9.188h-.969V6.234A6.193,6.193,0,0,0,9.042,0,6.193,6.193,0,0,0,2.907,6.234V9.188H1.938A1.954,1.954,0,0,0,0,11.156v7.875A1.954,1.954,0,0,0,1.938,21h14.21a1.954,1.954,0,0,0,1.938-1.969V11.156A1.954,1.954,0,0,0,16.147,9.188Zm-4.2,0H6.136V6.234a2.907,2.907,0,1,1,5.813,0Z" transform="translate(698 746)"/><rect class="d" width="32" height="29" rx="7" transform="translate(412 507)"/><rect class="d" width="32" height="29" rx="7" transform="translate(412 669)"/><path class="h" d="M6.906,18.24.3,12.166a.882.882,0,0,1,0-1.321L1.736,9.523a1.081,1.081,0,0,1,1.438,0l4.452,4.092L17.16,4.851a1.081,1.081,0,0,1,1.438,0l1.438,1.321a.882.882,0,0,1,0,1.321L8.344,18.24A1.081,1.081,0,0,1,6.906,18.24Z" transform="translate(417.8 508.5)"/><path class="h" d="M6.906,18.24.3,12.166a.882.882,0,0,1,0-1.321L1.736,9.523a1.081,1.081,0,0,1,1.438,0l4.452,4.092L17.16,4.851a1.081,1.081,0,0,1,1.438,0l1.438,1.321a.882.882,0,0,1,0,1.321L8.344,18.24A1.081,1.081,0,0,1,6.906,18.24Z" transform="translate(417.8 670.5)"/></g><g transform="translate(-387 204)"><rect class="g" width="390" height="81" transform="translate(387 484)"/><rect class="h" width="390" height="81" transform="translate(387 565)"/><rect class="g" width="390" height="81" transform="translate(387 646)"/><rect class="h" width="390" height="81" transform="translate(387 727)"/><text class="i" transform="translate(463 519)"><tspan x="0" y="0">List Name</tspan></text><text class="i" transform="translate(463 600)"><tspan x="0" y="0">List Name</tspan></text><text class="i" transform="translate(463 681)"><tspan x="0" y="0">List Name</tspan></text><text class="i" transform="translate(463 762)"><tspan x="0" y="0">List Name</tspan></text><text class="j" transform="translate(463 543)"><tspan x="0" y="0">8 Risk Control</tspan></text><text class="j" transform="translate(463 624)"><tspan x="0" y="0">8 Risk Control</tspan></text><text class="j" transform="translate(463 705)"><tspan x="0" y="0">8 Risk Control</tspan></text><text class="j" transform="translate(463 786)"><tspan x="0" y="0">8 Risk Control</tspan></text><path class="k" d="M16.147,9.188h-.969V6.234A6.193,6.193,0,0,0,9.042,0,6.193,6.193,0,0,0,2.907,6.234V9.188H1.938A1.954,1.954,0,0,0,0,11.156v7.875A1.954,1.954,0,0,0,1.938,21h14.21a1.954,1.954,0,0,0,1.938-1.969V11.156A1.954,1.954,0,0,0,16.147,9.188Zm-4.2,0H6.136V6.234a2.907,2.907,0,1,1,5.813,0Z" transform="translate(698 503)"/><path class="k" d="M16.147,9.188h-.969V6.234A6.193,6.193,0,0,0,9.042,0,6.193,6.193,0,0,0,2.907,6.234V9.188H1.938A1.954,1.954,0,0,0,0,11.156v7.875A1.954,1.954,0,0,0,1.938,21h14.21a1.954,1.954,0,0,0,1.938-1.969V11.156A1.954,1.954,0,0,0,16.147,9.188Zm-4.2,0H6.136V6.234a2.907,2.907,0,1,1,5.813,0Z" transform="translate(698 584)"/><path class="k" d="M16.147,9.188h-.969V6.234A6.193,6.193,0,0,0,9.042,0,6.193,6.193,0,0,0,2.907,6.234V9.188H1.938A1.954,1.954,0,0,0,0,11.156v7.875A1.954,1.954,0,0,0,1.938,21h14.21a1.954,1.954,0,0,0,1.938-1.969V11.156A1.954,1.954,0,0,0,16.147,9.188Zm-4.2,0H6.136V6.234a2.907,2.907,0,1,1,5.813,0Z" transform="translate(698 665)"/><path class="k" d="M16.147,9.188h-.969V6.234A6.193,6.193,0,0,0,9.042,0,6.193,6.193,0,0,0,2.907,6.234V9.188H1.938A1.954,1.954,0,0,0,0,11.156v7.875A1.954,1.954,0,0,0,1.938,21h14.21a1.954,1.954,0,0,0,1.938-1.969V11.156A1.954,1.954,0,0,0,16.147,9.188Zm-4.2,0H6.136V6.234a2.907,2.907,0,1,1,5.813,0Z" transform="translate(698 746)"/><rect class="d" width="32" height="29" rx="7" transform="translate(412 507)"/><rect class="d" width="32" height="29" rx="7" transform="translate(412 669)"/><path class="h" d="M6.906,18.24.3,12.166a.882.882,0,0,1,0-1.321L1.736,9.523a1.081,1.081,0,0,1,1.438,0l4.452,4.092L17.16,4.851a1.081,1.081,0,0,1,1.438,0l1.438,1.321a.882.882,0,0,1,0,1.321L8.344,18.24A1.081,1.081,0,0,1,6.906,18.24Z" transform="translate(417.8 508.5)"/><path class="h" d="M6.906,18.24.3,12.166a.882.882,0,0,1,0-1.321L1.736,9.523a1.081,1.081,0,0,1,1.438,0l4.452,4.092L17.16,4.851a1.081,1.081,0,0,1,1.438,0l1.438,1.321a.882.882,0,0,1,0,1.321L8.344,18.24A1.081,1.081,0,0,1,6.906,18.24Z" transform="translate(417.8 670.5)"/></g></g></g></g><g transform="translate(-479 -398)"><rect class="l" width="84" height="72" rx="15" transform="translate(879 665)"/><g transform="translate(902.95 660.5)"><path class="d" d="M19.587,15.217H15.926V18.4H14.138V15.217H10.477V13.662h3.661V10.477h1.788v3.185h3.661Z" transform="translate(-24 1)"/><path class="d" d="M11.738,5.087a6.6,6.6,0,0,1,4.72,1.981,6.837,6.837,0,0,1,0,9.571,6.613,6.613,0,0,1-9.44,0,6.837,6.837,0,0,1,0-9.571,6.6,6.6,0,0,1,4.72-1.981m0-1.712A8.48,8.48,0,1,0,20.1,11.854a8.42,8.42,0,0,0-8.363-8.479Z" transform="translate(-21 4)"/></g><path class="d" d="M3.375,3.375A3.375,3.375,0,1,0,6.75,6.75,3.375,3.375,0,0,0,3.375,3.375Zm0,11.25A3.375,3.375,0,1,0,6.75,18a3.375,3.375,0,0,0-3.375-3.375Zm0,11.25A3.375,3.375,0,1,0,6.75,29.25a3.375,3.375,0,0,0-3.375-3.375ZM34.875,27h-22.5a1.125,1.125,0,0,0-1.125,1.125v2.25A1.125,1.125,0,0,0,12.375,31.5h22.5A1.125,1.125,0,0,0,36,30.375v-2.25A1.125,1.125,0,0,0,34.875,27Zm0-22.5h-22.5A1.125,1.125,0,0,0,11.25,5.625v2.25A1.125,1.125,0,0,0,12.375,9h22.5A1.125,1.125,0,0,0,36,7.875V5.625A1.125,1.125,0,0,0,34.875,4.5Zm0,11.25h-22.5a1.125,1.125,0,0,0-1.125,1.125v2.25a1.125,1.125,0,0,0,1.125,1.125h22.5A1.125,1.125,0,0,0,36,19.125v-2.25A1.125,1.125,0,0,0,34.875,15.75Z" transform="translate(900 684)"/></g></g></svg>