<svg xmlns="http://www.w3.org/2000/svg" xmlns:xlink="http://www.w3.org/1999/xlink" width="1066.77" height="778" viewBox="0 0 1066.77 778"><defs><style>.a{fill:none;}.b{fill:url(#a);}.c{fill:url(#b);}.d{fill:#64a4ff;}.e{fill:#bbd070;}.f{fill:#97a43c;}.g{fill:#48753a;}.h{fill:#dbd8e3;}.i{fill:#323657;}.j{fill:#eea987;}.k{fill:#e8734d;}.l{fill:#c4c1cc;}.m{fill:#efaa88;}.n{fill:#eea886;}.o{fill:#16202e;}.p{fill:#a77860;}.q{fill:#4da8f2;}.r{fill:#ffc955;}.s{clip-path:url(#c);}.t{fill:#96cbff;}.u{fill:#95caff;}.v{fill:#94c9ff;}.w{fill:#93c9ff;}.x{fill:#92c8ff;}.y{fill:#91c7ff;}.z{fill:#90c6ff;}.aa{fill:#8fc6ff;}.ab{fill:#8ec5ff;}.ac{fill:#8dc4ff;}.ad{fill:#8cc3ff;}.ae{fill:#8bc2ff;}.af{fill:#8ac2ff;}.ag{fill:#89c1ff;}.ah{fill:#88c0ff;}.ai{fill:#87bfff;}.aj{fill:#86bfff;}.ak{fill:#85beff;}.al{fill:#84bdff;}.am{fill:#83bcff;}.an{fill:#82bbff;}.ao{fill:#81bbff;}.ap{fill:#80baff;}.aq{fill:#7fb9ff;}.ar{fill:#7eb8ff;}.as{fill:#7db7ff;}.at{fill:#7cb7ff;}.au{fill:#7bb6ff;}.av{fill:#7ab5ff;}.aw{fill:#79b4ff;}.ax{fill:#78b4ff;}.ay{fill:#77b3ff;}.az{fill:#76b2ff;}.ba{fill:#74b1ff;}.bb{fill:#73b0ff;}.bc{fill:#72b0ff;}.bd{fill:#71afff;}.be{fill:#70aeff;}.bf{fill:#6fadff;}.bg{fill:#6eadff;}.bh{fill:#6dacff;}.bi{fill:#6cabff;}.bj{fill:#6baaff;}.bk{fill:#6aa9ff;}.bl{fill:#69a9ff;}.bm{fill:#68a8ff;}.bn{fill:#67a7ff;}.bo{fill:#66a6ff;}.bp{fill:#65a6ff;}.bq{fill:#64a5ff;}.br{fill:#63a4ff;}.bs{fill:#62a3ff;}.bt{fill:#61a2ff;}.bu{fill:#60a2ff;}.bv{fill:#5fa1ff;}.bw{fill:#5ea0ff;}.bx{fill:#5d9fff;}.by{fill:#5c9eff;}.bz{fill:#5b9eff;}.ca{fill:#5a9dff;}.cb{fill:#599cff;}.cc{fill:#589bff;}.cd{fill:#579bff;}.ce{fill:#569aff;}.cf{fill:#59f;}.cg{fill:#cfa345;}.ch{fill:#6069a8;}.ci{fill:#202338;}.cj{fill:#464240;}.ck{fill:#eb4747;}.cl{fill:#5f8cc9;}.cm{fill:#5e5853;}.cn{fill:#91887f;}.co{fill:#eddad3;}.cp{fill:#6e6760;}.cq{fill:#807066;}.cr{fill:#ffcb55;}.cs{fill:#cf8c6c;}.ct{fill:#3b3f66;}.cu{fill:#555c94;}.cv{fill:#354c70;}.cw{fill:#deb135;}.cx{fill:#f2c344;}.cy{fill:#d9d0c4;}.cz{fill:#ffd255;}.da{fill:#3c5780;}.db{fill:#c48a6f;}.dc{clip-path:url(#d);}.dd{fill:#db9c7c;}.de{clip-path:url(#e);}.df{fill:#293b57;}.dg{fill:#e3f2ff;}.dh{fill:#ebebeb;}.di{fill:#162d40;}.dj{fill:#1d3b54;}.dk{fill:#d1c0ba;}.dl{fill:#fae6de;}.dm{fill:#54281a;}.dn{fill:#366e9c;}.do{fill:#5c544d;}.dp{fill:#3c4145;}.dq{fill:#fccca2;}.dr{fill:#e2d2ca;}.ds{fill:#f25f54;}.dt{fill:#c98462;}.du{fill:#de9d7d;}.dv{fill:#252e3b;}.dw{fill:#5fa0ff;}.dx{fill:#5189db;}.dy{fill:#c2bebc;}.dz{fill:#d6d6d6;}.ea{fill:#e8e8e8;}.eb{fill:#c2c2c2;}</style><linearGradient id="a" y1="0.5" x2="1" y2="0.5" gradientUnits="objectBoundingBox"><stop offset="0" stop-color="#96cbff"/><stop offset="1" stop-color="#59f"/></linearGradient><linearGradient id="b" x1="-1.979" y1="6.265" x2="-0.989" y2="6.265" xlink:href="#a"/><clipPath id="c"><rect class="a" width="422.109" height="7.319"/></clipPath><clipPath id="d"><path class="a" d="M447.967,466.078l.74-.375-3.315-7.694-1.863.945,2.808,6.539a1.2,1.2,0,0,0,.7.691,1.063,1.063,0,0,0,.935-.107Z" transform="translate(-443.529 -458.009)"/></clipPath><clipPath id="e"><path class="a" d="M441.324,460.609l7.3-1.485-1.192-6.569-7.247,1.815Z" transform="translate(-440.187 -452.555)"/></clipPath></defs><g transform="translate(-964.229 -168)"><g transform="translate(964.229 168)"><rect class="a" width="1066.77" height="778"/><path class="b" d="M746.708,458.11a104.062,104.062,0,0,0,9.877-25.5l17.467-3.659.192-21.161.178-21.161-17.412-4.019a104.789,104.789,0,0,0-9.439-25.645l9.987-16.107-13.549-15.1L730.5,310.687,715.6,321.305a86.015,86.015,0,0,0-23.289-10.813l-3.343-19.121-19.33-.195-19.33-.21-3.658,19.106a86.572,86.572,0,0,0-23.44,10.333l-14.631-10.963L594.767,324.26l-13.782,14.817,9.7,16.317a103.951,103.951,0,0,0-9.877,25.5l-17.467,3.659-.178,21.161-.192,21.161,17.412,4.019a104.889,104.889,0,0,0,9.439,25.66l-10.014,16.062,13.535,15.1,13.535,15.1,14.905-10.633A86.2,86.2,0,0,0,645.071,503l3.233,19.121,19.33.21,19.33.195,3.713-18.987a85.979,85.979,0,0,0,23.385-10.408l14.713,10.933,13.8-14.832,13.8-14.817Zm-111.87-15c-18.345-20.448-18.073-53.306.608-73.386s48.7-19.778,67.036.675,18.06,53.311-.625,73.386-48.683,19.755-67.018-.69Z" transform="translate(195.506 49.995)"/><path class="c" d="M314.94,305.217a79.447,79.447,0,0,0,5.562-19.736l12.727-4.184-1.37-15.732-1.37-15.732-13.22-1.5a75.9,75.9,0,0,0-8.8-18.267l6.288-12.808-11.11-10.078-11.11-10.093-10.316,9.133a63.521,63.521,0,0,0-18.029-6l-3.726-14.037-14.371,1.5-14.371,1.5-1.4,14.367a65.627,65.627,0,0,0-16.686,9.628L201.96,206.3,192.7,218.548l-9.22,12.163,8.357,11.308a78.755,78.755,0,0,0-5.562,19.721l-12.727,4.184,1.37,15.732,1.37,15.732,13.206,1.5a77.024,77.024,0,0,0,8.809,18.267L192,329.948l11.11,10.078,11.11,10.093,10.329-9.133a63.588,63.588,0,0,0,18.029,6.089l3.822,13.917,14.371-1.5,14.371-1.5,1.37-14.472a65.786,65.786,0,0,0,16.659-9.493l11.686,6.884,9.22-12.163,9.206-12.163ZM230.8,303.4c-15.043-13.658-17.123-38.08-4.646-54.548s34.786-18.744,49.828-5.084,17.121,38.081,4.643,54.548-34.786,18.75-49.825,5.084Z" transform="translate(50.747 31.983)"/><path class="d" d="M731.826,616.16H730.62V521.828c-.023-21-15.57-38.023-34.756-38.048H607.256c-19.854-.025-35.945-17.633-35.975-39.368V268.225c-.023-21-15.562-38.015-34.742-38.048H310.593v-1.32H536.539c19.852.025,35.939,17.636,35.961,39.368V444.412c.023,21,15.57,38.023,34.756,38.048h88.609c19.851.025,35.939,17.636,35.961,39.368Z" transform="translate(127.733 39.365)"/><path class="e" d="M367.874,177.837s13.7,59.614-19.179,75.9-26.536-13.5-26.536-13.5-13.467-4.094,23.18-26.845C362.572,202.642,367.874,177.837,367.874,177.837Z" transform="translate(84.502 30.539)"/><path class="f" d="M453.347,182.279s6.727,51.935-55.4,74.431S326.956,307.7,326.956,307.7,325.079,192.477,453.347,182.279Z" transform="translate(92.537 31.306)"/><path class="g" d="M326.985,278.24c-18.426-7.694,25.372-48.966,59.018-47.856s56.469,14.757,79.019,9C465.021,239.367,417.7,316.153,326.985,278.24Z" transform="translate(92.723 39.556)"/><path class="h" d="M395.932,311.742q1.6-23.5,2.219-43.987c-3.452-2.01-7.6-4.349-10.96-6.074-10.288-5.369-24.659-12.583-33.81-17.2-5.384-2.7-10.658-4.679-10.658-4.679s-36.742-3.854-39.729-3.644a85.762,85.762,0,0,0-11.549,4.319c-13.028,5.414-38.153,16.5-42.153,19.586-5.863,4.589-26.851,117.218-27.4,124.867s28.55,17.592,55.483,25.39c0,11.413-.233,27.415-.466,41.992,0,2.5-.082,4.949-.123,7.319H394.6c-.164-2.5-.3-4.979-.425-7.319V451.4c-.438-9.9-2.206-27.61-1.754-44.857,0,0-.288-18.192,1.37-26.02C394.082,345.966,395.932,311.742,395.932,311.742ZM246.47,377.955c.192-14.667,18.029-41.992,18.029-41.992a8.259,8.259,0,0,1,.836-.345s.918-.135.918-.12,2.74-2.879,2.74-2.879c.644,2.61,6.562,39.443,8,60.889C260.306,389.953,246.374,384.959,246.47,377.955Z" transform="translate(65.995 40.574)"/><path class="i" d="M389.888,451.432c-.781-6.1-1.521-12.208-2.178-18.192h0c-.205-1.995-.425-3.959-.63-6a2.025,2.025,0,0,1,0-.3c-.863-8.233-1.575-16.137-2.1-23.366a80.927,80.927,0,0,1,.658-16.242c2.055-36.983,3.069-75.961,3.069-75.961,1.082-15.957,1.7-30.879,2.11-44.782,0,0-46.14-23.861-50.318-25.225,0,0,8.754,22.5,15.316,72.782,2.521,19.3,7.192,51.815,10.59,84.989h0c1.836,17.907,5.274,36.143,7.891,52.28.4,2.5.781,4.934,1.137,7.319h15.439C390.436,456.321,390.121,453.877,389.888,451.432Z" transform="translate(89.943 41.47)"/><path class="i" d="M321.777,392.644c1.822-18.7,3.452-37.358,2.671-47.571-6.37-82.2-24.371-103.946-26.988-107.125-2.014.84-9.7,3.989-11.946,4.964-12.33,5.324-37.413,15-40.8,17.727-5.863,4.589-28.988,122.662-29.687,130.3-.466,5.174,29.714,15.957,60.5,25.585-.274,9.238.521,22.271-2.288,35.888a33.722,33.722,0,0,0-1.37,7.139l42.921-.195c.26-2.43.534-4.859.808-7.319.822-7.334,1.671-14.862,2.521-22.856,12.878,3.644,21.632,6,21.632,6s12.083-22.376,15.59-31.494C355.985,402.167,340.422,398.073,321.777,392.644Zm-55.5-28.285c-.411-16.827-.342-28.495-.342-28.495,1.521,5.759,3.63,22.241,5.48,38.618-6.233-3.539-5.069-6.749-5.137-10.138Z" transform="translate(61.674 40.883)"/><path class="j" d="M295.933,242.878s4.672-9.658,3.384-37.1c-.37-7.6,36.482,18,36.482,18s-.137,2.624-.205,6.164v8.353a26.4,26.4,0,0,0,.1,2.685c.1.87.1,1.935.178,2.79a26.881,26.881,0,0,0,1.37,5.384C338.881,253.436,309.729,253.691,295.933,242.878Z" transform="translate(77.576 35.091)"/><path class="k" d="M325.066,252.146l6.85,9.988s-3.973,5.834-11.042,1.5Z" transform="translate(82.035 43.292)"/><path class="k" d="M329.806,261.045s24.878,66.513,19.577,151.007l-7.85,15.657-8.85-13.273s-1.37-112.209-8.48-153.571Z" transform="translate(83.899 44.81)"/><path class="j" d="M333.085,244.624l-7.274,9.3s-11.658-2.475-15.069-9.133S333.085,244.624,333.085,244.624Z" transform="translate(80.119 41.513)"/><path class="l" d="M333.738,237.243s-.849,7.109-8.946,17.457l8.836,13,4.781-26.995Z" transform="translate(83.21 40.735)"/><path class="l" d="M298.255,229.958s16.864,20.891,28.659,25.99l-5.48,14.862L294.474,238.3Z" transform="translate(76.618 39.485)"/><path class="i" d="M466.876,413.772S444.477,390,429.8,386.042c-6.85-1.83-15.741-12.088-24.234-24.16-2.74-3.959-5.548-8.129-8.22-12.253h0c-10.425-16.5-18.6-32.274-18.6-32.274s-30.81-39.533-6.083-57.154c0,0,10.6-.255,16.439,3.209S407.831,296.089,410,301.248s25.577,53.06,27.139,54.14,4.192,5.024,13.563,10.5c11.466,6.764,29.5,26.545,29.5,26.545Z" transform="translate(101.831 44.693)"/><path class="m" d="M361.592,420.886a13.313,13.313,0,0,1-4.466-.915s-2.343-1.65-4.11-2.715a15.174,15.174,0,0,0-1.37-.75,24.961,24.961,0,0,1-7.521-3.929c-2.945-2.445-12.535-12.283-12.535-12.283l6.192-10.5,2.877-10.348s22.453,2.445,25.4,4.394a9.611,9.611,0,0,1,.822.615c2.384,1.9,3.425,4.5,4.576,5.579.411.435,4.315,5.009,4.11,6.854a6.19,6.19,0,0,1-2.918,5.009s-.795,5.009-3.165,7.244a9,9,0,0,1-4.247,6.509S364.14,420.286,361.592,420.886Z" transform="translate(87.115 65.153)"/><path class="n" d="M328.644,145.23s40.455-10.678,31.934,45.4-18.234,60.619-42.866,49.491-22.933-47.031-24.4-64.578S315.7,146.055,328.644,145.23Z" transform="translate(78.688 24.802)"/><path class="n" d="M307.124,178.876c-.589-4.919-9.59-6.584-10.138.825s4.315,20.306,7.672,18.971S308,185.67,307.124,178.876Z" transform="translate(75.895 29.989)"/><path class="o" d="M295.883,206.044s.808-17.637,6.685-18.282,6.85,6.434,6.85,6.434l5.959,1.14s-2.082-15.417,3.754-18.207,38.139,7.889,42.784,3.284,2.014-35.9-6.562-40.058-32.235-13.378-49.318-.315c0,0-13.467-1.5-15.3,10.5S292.115,197.271,295.883,206.044Z" transform="translate(78.246 22.891)"/><path class="i" d="M351.9,381.647l-16.7,31.494s-44.249-12.493-54.579-15.672l23.6-30.759S339.022,375.378,351.9,381.647Z" transform="translate(75.483 62.967)"/><path class="p" d="M335.022,238.671h0c-12.521-1.13-23.76-8.848-30.139-20.7a43.17,43.17,0,0,0,30,14.4v3.614C334.885,236.721,334.981,237.8,335.022,238.671Z" transform="translate(79.175 37.425)"/><path class="q" d="M613.846,473.962a6.344,6.344,0,0,0-6.325-2.8,6.8,6.8,0,0,0-5.21,4.821h0a8.407,8.407,0,0,0-.342,2.22,7.914,7.914,0,0,0,.4,2.58,7.5,7.5,0,0,0,2.164,3.24,6.257,6.257,0,0,0,3.439,1.5h.959a6.591,6.591,0,0,0,1.891-.42,7,7,0,0,0,4.081-4.736,7.786,7.786,0,0,0-1.053-6.407Zm-3.589,9.433h0a4.513,4.513,0,0,1-1.37.315h-.329a4.454,4.454,0,0,1-1.37-.24,4.387,4.387,0,0,1-1.616-.9,3.894,3.894,0,0,1-.493-.48,5.6,5.6,0,0,1-1.37-3.869,5.164,5.164,0,0,1,.123-1.14,4.872,4.872,0,0,1,9.686.3,5.5,5.5,0,0,1-3.179,5.985Z" transform="translate(154.17 80.88)"/><path class="n" d="M376.581,361.247c25.139,28.33,58.374,64.023,58.374,64.023l12.987-26.995s-29.509-37.868-49.524-63.138C392.294,338.5,381.033,346.28,376.581,361.247Z" transform="translate(101.302 57.553)"/><path class="n" d="M362.265,389.96a70.656,70.656,0,0,1,8.507,5.129c1.767,1.59,8.932,7.5,10.672,8.848s-2.617,5.309-15.426-.765S362.265,389.96,362.265,389.96Z" transform="translate(92.695 66.954)"/><path class="r" d="M363.384,320.708l-11.8,120.1H506.9l11.809-120.1Z" transform="translate(103.59 55.08)"/><path class="r" d="M515.264,436.283H358.733l11.932-121.477H527.2Zm-155.188-1.32H514.181l11.672-118.778H371.748Z" transform="translate(105.84 54.067)"/><rect class="r" width="25.947" height="10.813" transform="translate(453.986 495.914) rotate(180)"/><g class="s" transform="translate(114.281 495.661)"><path class="t" d="M106.8,423.031Z" transform="translate(-106.804 -423.031)"/><rect class="t" width="6.494" height="7.319"/><rect class="u" width="6.494" height="7.319" transform="translate(6.494)"/><rect class="v" width="6.494" height="7.319" transform="translate(12.987)"/><rect class="w" width="6.494" height="7.319" transform="translate(19.481)"/><rect class="x" width="6.494" height="7.319" transform="translate(25.974)"/><rect class="y" width="6.494" height="7.319" transform="translate(32.468)"/><rect class="z" width="6.494" height="7.319" transform="translate(38.961)"/><rect class="aa" width="6.494" height="7.319" transform="translate(45.455)"/><rect class="ab" width="6.494" height="7.319" transform="translate(51.949)"/><rect class="ac" width="6.494" height="7.319" transform="translate(58.442)"/><rect class="ad" width="6.494" height="7.319" transform="translate(64.936)"/><rect class="ae" width="6.494" height="7.319" transform="translate(71.429)"/><rect class="af" width="6.494" height="7.319" transform="translate(77.923)"/><rect class="ag" width="6.494" height="7.319" transform="translate(84.416)"/><rect class="ah" width="6.494" height="7.319" transform="translate(90.91)"/><rect class="ai" width="6.494" height="7.319" transform="translate(97.404)"/><rect class="aj" width="6.494" height="7.319" transform="translate(103.897)"/><rect class="ak" width="6.494" height="7.319" transform="translate(110.391)"/><rect class="al" width="6.494" height="7.319" transform="translate(116.884)"/><rect class="am" width="6.494" height="7.319" transform="translate(123.378)"/><rect class="an" width="6.494" height="7.319" transform="translate(129.871)"/><rect class="ao" width="6.494" height="7.319" transform="translate(136.365)"/><rect class="ap" width="6.494" height="7.319" transform="translate(142.872)"/><rect class="aq" width="6.494" height="7.319" transform="translate(149.366)"/><rect class="ar" width="6.494" height="7.319" transform="translate(155.859)"/><rect class="as" width="6.494" height="7.319" transform="translate(162.353)"/><rect class="at" width="6.494" height="7.319" transform="translate(168.847)"/><rect class="au" width="6.494" height="7.319" transform="translate(175.34)"/><rect class="av" width="6.494" height="7.319" transform="translate(181.834)"/><rect class="aw" width="6.494" height="7.319" transform="translate(188.327)"/><rect class="ax" width="6.494" height="7.319" transform="translate(194.821)"/><rect class="ay" width="6.494" height="7.319" transform="translate(201.314)"/><rect class="az" width="6.494" height="7.319" transform="translate(207.808)"/><rect class="ba" width="6.494" height="7.319" transform="translate(214.302)"/><rect class="bb" width="6.494" height="7.319" transform="translate(220.795)"/><rect class="bc" width="6.494" height="7.319" transform="translate(227.289)"/><rect class="bd" width="6.494" height="7.319" transform="translate(233.782)"/><rect class="be" width="6.494" height="7.319" transform="translate(240.276)"/><rect class="bf" width="6.494" height="7.319" transform="translate(246.769)"/><rect class="bg" width="6.494" height="7.319" transform="translate(253.263)"/><rect class="bh" width="6.494" height="7.319" transform="translate(259.757)"/><rect class="bi" width="6.494" height="7.319" transform="translate(266.25)"/><rect class="bj" width="6.494" height="7.319" transform="translate(272.744)"/><rect class="bk" width="6.494" height="7.319" transform="translate(279.237)"/><rect class="bl" width="6.494" height="7.319" transform="translate(285.731)"/><rect class="bm" width="6.494" height="7.319" transform="translate(292.224)"/><rect class="bn" width="6.494" height="7.319" transform="translate(298.718)"/><rect class="bo" width="6.494" height="7.319" transform="translate(305.211)"/><rect class="bp" width="6.494" height="7.319" transform="translate(311.705)"/><rect class="bq" width="6.494" height="7.319" transform="translate(318.199)"/><rect class="br" width="6.494" height="7.319" transform="translate(324.692)"/><rect class="bs" width="6.494" height="7.319" transform="translate(331.186)"/><rect class="bt" width="6.494" height="7.319" transform="translate(337.679)"/><rect class="bu" width="6.494" height="7.319" transform="translate(344.187)"/><rect class="bv" width="6.494" height="7.319" transform="translate(350.68)"/><rect class="bw" width="6.494" height="7.319" transform="translate(357.174)"/><rect class="bx" width="6.494" height="7.319" transform="translate(363.667)"/><rect class="by" width="6.494" height="7.319" transform="translate(370.161)"/><rect class="bz" width="6.494" height="7.319" transform="translate(376.654)"/><rect class="ca" width="6.494" height="7.319" transform="translate(383.148)"/><rect class="cb" width="6.494" height="7.319" transform="translate(389.642)"/><rect class="cc" width="6.494" height="7.319" transform="translate(396.135)"/><rect class="cd" width="6.494" height="7.319" transform="translate(402.629)"/><rect class="ce" width="6.494" height="7.319" transform="translate(409.122)"/><rect class="cf" width="6.494" height="7.319" transform="translate(415.616)"/><path class="cf" d="M501.3,429.279Z" transform="translate(-79.187 -421.96)"/></g><rect class="r" width="365.722" height="7.319" transform="translate(584.711 651.873)"/><path class="cg" d="M421.642,371.845c-1.26,6.689,1.589,12.973,6.357,14.037s9.59-3.494,10.891-10.183-1.6-12.973-6.37-14.037S422.889,365.156,421.642,371.845Z" transform="translate(108.319 62.07)"/><path class="ch" d="M698.841,330.158s3.589,6.659,5.1,7.739c2.055,1.5.767,3-.206,3s-5.959.39-7.055-.975-1.644-5.444-2.658-6.509-2.069-5.324.493-6.359C696.745,326.108,698.841,330.158,698.841,330.158Z" transform="translate(204.603 56.128)"/><path class="ci" d="M697.2,327.208s4.11,7.8,4.809,9-1.37,1.155-2.589.6-4.439-6.119-4.9-7.139a4.181,4.181,0,0,1-.1-2.61Z" transform="translate(204.697 56.153)"/><path class="ch" d="M693.127,330.771l.945,7.979.493.03-.151-5.744Z" transform="translate(204.618 56.79)"/><path class="ch" d="M665.643,330.154s3.576,6.659,5.1,7.739c2.055,1.5.767,3-.206,3s-5.959.39-7.055-.975-1.644-5.444-2.658-6.509-2.11-5.429.493-6.359C663.6,326.21,665.643,330.154,665.643,330.154Z" transform="translate(168.81 56.132)"/><path class="ci" d="M664.207,327.232s3.891,7.784,4.6,8.923-1.37,1.155-2.6.6-4.439-6.119-4.891-7.139a4.065,4.065,0,0,1-.1-2.609Z" transform="translate(168.579 56.144)"/><path class="ch" d="M659.916,330.771l.959,7.979.493.03-.151-5.744Z" transform="translate(167.423 56.79)"/><path class="ci" d="M650.4,278.851l32.413,16.167a6.77,6.77,0,0,1,4.028,5.684c1.26,13.737,10.645,35.513,10.645,35.513,3.014,1.62,2.74.21,2.74.21-1.891-6.659-4.206-34.134-5.028-45.187-.178-2.34-.288-3.929-.3-4.5s-.37-.795-.973-1.335c-4.452-3.944-22.755-12.118-22.755-12.118C657.472,272.942,650.4,278.851,650.4,278.851Z" transform="translate(171.725 46.925)"/><path class="ci" d="M644.7,286.152c1,9.583,13.508,8.488,13.508,8.488h15.165a110.129,110.129,0,0,0-5.48,17.892c-1.63,8.683-5.48,24-5.48,24s.247.525,2.986.24c0,0,11.9-25.975,16.439-32.5a47.459,47.459,0,0,0,4.274-13.587c.151-1.5,0-2.7-.466-3.179a35.244,35.244,0,0,0-3.343-2.5c-4.754-3.284-13-8.339-17.59-9.463-6.165-1.5-15.891-4.349-15.891-4.349a19.481,19.481,0,0,0-4.124,14.967Z" transform="translate(168.995 46.567)"/><path class="cj" d="M654.427,223.521a16.787,16.787,0,0,1-1.164-9.748c1.11-5.024,5.357-10.018,11.59-7.724s11.275,7.6,7.535,13.722,3.384,8.908,1.576,11.818-1.123,6-.356,6.644,3.247,3.089,2.973,6-12.1-8.338-12.1-8.338S658.044,221.676,654.427,223.521Z" transform="translate(168.664 35.281)"/><path class="ck" d="M673.737,272.674s-.945,4.994-25.152-1.3C648.585,271.369,656.7,268.415,673.737,272.674Z" transform="translate(167.737 46.42)"/><path class="cl" d="M648.638,279.4c-.37.78-.74,1.5-1.123,2.355l26.563.84c-1.37-5.129-.945-12.073-.712-17.352.3-6.449,3.562-10.933,3.206-17.442,1.754.315,2.055.375,3.809.66-2.671-8.368-3.6-12.508-11.932-15.732a14.394,14.394,0,0,0-7.425-.99c-9.59.87-12.562,1-17.3,10.5,7.425,1.29,6.206,4.214,8.453,12.283,1.1,3.944,2.233,8.338,1.658,12.493S648.638,275.67,648.638,279.4Z" transform="translate(168.078 39.771)"/><path class="n" d="M662.928,235.976c-3.959-.81-3.11-3.209-3.11-3.209s.178-1.365.247-3.074v-1.38a17.882,17.882,0,0,0-.11-2.115c-.315-2.909,7.178-1.17,7.178-1.17s-.438,5.864.589,7.619S666.874,236.8,662.928,235.976Z" transform="translate(168.293 38.547)"/><path class="n" d="M655.678,231.661s7.959,10.063,10.96,12.4c0,0,3.384-3.344,1.3-12.193C667.843,231.886,664.035,229.771,655.678,231.661Z" transform="translate(167.889 39.639)"/><path class="n" d="M655.99,211.093s-4.11,8.728,0,16.992,12.165-3.6,12.686-4.994,3.288-9.268-2.219-11.653S657.168,208.723,655.99,211.093Z" transform="translate(167.872 35.966)"/><path class="cj" d="M657.384,214.447s-2.85,4.094-3.192,7.124a17.551,17.551,0,0,1,2.082-11.218c3.206-5.489,11.343-.255,12.439,1.935s4.288,4.124-1.082,13.573C667.632,225.86,657.973,218.512,657.384,214.447Z" transform="translate(167.966 35.7)"/><path class="p" d="M663.565,226.1a7.972,7.972,0,0,1-3.521,3.314v-1.38a6.412,6.412,0,0,0,3.521-1.935Z" transform="translate(167.732 38.819)"/><path class="n" d="M624.809,265.767s-1.973.945-2.9.51a7.918,7.918,0,0,0-2.836-.51c-.6,0-2.507-.75-2.48,0s3.1,1.395,3.726,1.635-1.877,1.77-2.11,2.43,2.589,5.069,4.178,3.809,2.452-3.749,2.74-3.9a14,14,0,0,0,1.192-.855Z" transform="translate(157.472 45.572)"/><path class="n" d="M618.7,268.867s-4.617,4.2-4.685,4.754.178.84.616.465l4.576-3.9s-4.617,6-4.781,6.419.356.795.617.615,5.178-5.789,5.178-5.789-4.315,5.579-4.329,6a.541.541,0,0,0,.306.486.462.462,0,0,0,.53-.111c.356-.39,4.63-5.324,4.63-5.324s-2.877,4.289-2.74,4.664.479.72,1.178-.42,2.658-3.6,2.658-3.6Z" transform="translate(156.651 46.162)"/><path class="r" d="M671.789,294.634H658.212s-12.508,1.095-13.508-8.488a19.482,19.482,0,0,1,4.11-14.922s6.6,1.92,12.33,3.449a40.526,40.526,0,0,1,10.439-.99s24.453,8.848,23.727,13.5C695.352,287.18,685.063,281.2,671.789,294.634Z" transform="translate(170.313 46.568)"/><path class="cm" d="M661.747,277.1l25.892-.42-13.069,7.259Z" transform="translate(171.246 47.503)"/><path class="cl" d="M670.132,274.392a20.275,20.275,0,0,1-12.96.24l-.343-3,14.7.9Z" transform="translate(168.425 46.636)"/><path class="cn" d="M674.569,283.875l-12.823-5.429v-1.41l13.837,5.459Z" transform="translate(169.567 47.564)"/><path class="co" d="M669.328,282.519a1.449,1.449,0,0,0,.525,1.242,1.183,1.183,0,0,0,1.242.153l1.507-.7a1.208,1.208,0,0,0,.644-1.26c-.63-4.289-1.973-21,0-23.846a10.8,10.8,0,0,0,1.438-2.789c1.288,3.659,2.9,8.368,3.548,10.9l12.234,17.8,4.11,1.14a156.515,156.515,0,0,0-9.233-20.651c-.795-2.34-3.1-9.478-5.124-15.822-1.288-4-2.466-7.694-3.1-9.673a4.44,4.44,0,0,0-1.781-2.4c-1.9-1.245-5.055-3.194-7.918-4.724h0l-.274-.15h0c5.48,9,3.315,34.494,2.247,50.766Z" transform="translate(172.863 39.792)"/><path class="co" d="M652.271,232.615c-1.754.3-6.069,4.9-8.37,9.538-2.617,5.294-5.288,11.323-7.288,13.3-3.671,3.644-13.96,16.5-14.453,16.212a33.318,33.318,0,0,0,3.206,4.034c.192.09,16.905-15.762,18.522-18.177s5.589-11.908,6.85-11.7h0a75.155,75.155,0,0,1,2.986,8.863,1.354,1.354,0,0,0,.069.255,31.13,31.13,0,0,1,.356,11.848,42.323,42.323,0,0,1-4.014,11.323,2.107,2.107,0,0,0,0,1.38h0a.983.983,0,0,0,.452.57l4.9,1.995,1.164.465a2.331,2.331,0,0,0,2.162-.232,2.786,2.786,0,0,0,1.194-1.987c1.1-9.193,2.48-18.582,3.576-22.121A36.333,36.333,0,0,0,661.7,231a85.706,85.706,0,0,0-9.425,1.62Z" transform="translate(163.347 39.664)"/><path class="cp" d="M673.73,286.242l7.7-23.021,24.823.45-7.343,21.206Z" transform="translate(175.307 45.194)"/><path class="cq" d="M688.381,272.227c-.767,1.665-.534,3.464.507,4.034s2.493-.315,3.247-1.965.534-3.464-.507-4.034S689.135,270.578,688.381,272.227Z" transform="translate(204.254 46.371)"/><path class="cj" d="M663.986,218.3a5.271,5.271,0,0,1,.123,5.054c-1.466,2.34.37,4.634.685,7.094s-6.124,9,1.055,12.358,9.453-2.16,7.617-5.174a17.963,17.963,0,0,1-3.274-9.733C670.027,223.575,668.74,216.916,663.986,218.3Z" transform="translate(169.442 37.449)"/><path class="cr" d="M631.121,208.667h14.96v14.382l-2.288-2.5H631.121Z" transform="translate(161.866 35.827)"/><path class="e" d="M553.967,364.264s-32.619,33.984-16.755,60.454S560.5,428,560.5,428s10.727,3.539-5.192-29.08C547.816,383.535,553.967,364.264,553.967,364.264Z" transform="translate(138.497 62.552)"/><path class="f" d="M496.8,332.807s-24.919,32.064,8.4,76.486,28.152,67.862,28.152,67.862S579.736,399.949,496.8,332.807Z" transform="translate(129.761 57.163)"/><path class="g" d="M542.464,458.034c15.494,3.434,2.959-45.921-20.3-60.964s-44.044-16.5-57.072-31.014C465.089,366.057,466.1,441.178,542.464,458.034Z" transform="translate(126.551 62.863)"/><path class="n" d="M442.7,463.661l.822-2.22a4.733,4.733,0,0,1,1.63-1.245,4.932,4.932,0,0,1,2.288-.6.787.787,0,0,1,.493.51,1.739,1.739,0,0,1,.137.855,1.085,1.085,0,0,1,.342.93.963.963,0,0,1,.178.99.814.814,0,0,1,.192.825,5.549,5.549,0,0,0-.89.735,12.539,12.539,0,0,1-3.233,1.74S443.012,466.211,442.7,463.661Z" transform="translate(112.734 78.908)"/><path class="cs" d="M445.06,462.2a5.909,5.909,0,0,1-.11,1.335c-.137.3,1.932.945,1.932.945S446.224,462.2,445.06,462.2Z" transform="translate(112.928 79.353)"/><path class="ct" d="M409.05,549.733l.9-3.074,3.808.675-.562,2.774Z" transform="translate(104.048 93.892)"/><path class="cu" d="M438.267,549.211l.219,1.68,4.178-.75-.233-2.535Z" transform="translate(111.452 94.054)"/><path class="cv" d="M431.273,510.575s-.616,3.674-1.37,7.739l-.37,2.16c-.7,3.914-1.37,7.694-1.671,8.473-.589,1.77-13.371,27.415-13.371,27.415s-5.233-.435-5.48-1.17c0,0,10.713-27.85,10.658-28.855s1.3-29.56,1.3-29.56S431,508.925,431.273,510.575Z" transform="translate(105.528 85.303)"/><path class="cv" d="M436.362,495.816s5,28.045,5.48,30.189,2.315,30.864,2.315,30.864-1.123,2.55-5.274,1.59c0,0-5.658-30.864-6.137-31.9-1.849-4.019-10.96-23.456-11.823-26.23a18.209,18.209,0,0,1-.616-6S426.978,490.162,436.362,495.816Z" transform="translate(108.577 84.63)"/><path class="cw" d="M433.477,464.734s2.192,6,2.74,5.819,6.85-8.293,6.85-8.293,2.891,3.944,2.493,4.394-7.973,14.187-9,13.947-5.6-8.533-5.6-8.533S430.71,465.814,433.477,464.734Z" transform="translate(110.5 79.367)"/><path class="cx" d="M424.931,454.616a91.913,91.913,0,0,1,7.261,6.644c1.576,1.89,5.9,9.718,5.589,12.073a185.919,185.919,0,0,0-1.795,22.886c0,5.369,1.521,6.749.548,6.824s-15.426,5.774-17.549,6.464c0,0,1.37-18.9,2.1-21.086S418.821,463.39,424.931,454.616Z" transform="translate(107.796 78.063)"/><path class="cy" d="M459.717,446.909l1.274,7.034,1.274,7.049a32.094,32.094,0,0,0-15.59-.7l-.562-3.1-.562-3.119a34,34,0,0,0,14.165-7.154Z" transform="translate(114.436 76.731)"/><path class="al" d="M438.506,550.722s3.151-.675,3.26-.78.781-1.5,1.274-1.23.493,1.89.973,2.174a49.392,49.392,0,0,1,4.7,3.569c.466.57,3.3.21,3.63,1.095s.356,3-3.891,2.46-9.11.27-10.014-.27S438.2,552.057,438.506,550.722Z" transform="translate(112.288 94.238)"/><path class="al" d="M409.1,549.439s3.206-.1,3.329-.195.986-1.3,1.438-.99.205,1.965.63,2.324,3.74,3.764,4.11,4.349,3.233.78,3.425,1.71-.082,3-4.206,1.755-9.014-1.335-9.836-2.04S408.607,550.668,409.1,549.439Z" transform="translate(104.522 94.156)"/><path class="j" d="M432.513,496.5s.384,1.695.986,2.07-2.863,4.019-2.863,4.019a35.908,35.908,0,0,1-1.37-3.719,21.273,21.273,0,0,1,3.247-2.37Z" transform="translate(109.155 85.243)"/><path class="cz" d="M422.476,461.219s-4.11,21.266-4.425,23.441,11.973,21.731,11.973,21.731l4.11-2.655S424.188,484,424.188,483.1s4.754-18,4.754-18a4.241,4.241,0,0,0-1.493-5.474,3.533,3.533,0,0,0-5,1.635Z" transform="translate(107.316 78.838)"/><path class="da" d="M434.921,497.738a79.092,79.092,0,0,1,1.247,9.448c-.082,2.22-7.617-3.479-7.233-5.684Z" transform="translate(109.324 85.457)"/><path class="n" d="M424.542,455.666s10.371,12.388,9.727,11.008c-2.274-4.889-3.863-5.714-3.836-6.629s.274-2.744.315-3.419c.082-1.3.178-2.355.178-2.355s-5.151-7.919-4.918-5.219A17.783,17.783,0,0,1,424.542,455.666Z" transform="translate(108.427 77.003)"/><path class="n" d="M434.447,442.492a29.91,29.91,0,0,1,1.438,4.5,21.165,21.165,0,0,0,0,2.5q.5,1.857.808,3.764c-.11.72-1.493.345-1.685,1.5s-1.192,3.389-1.685,3.434c-1.288.12-6.206-2.07-6.507-3.194s-2.1-7.394-2.658-8.593,8.658-7.739,9.494-5.849Z" transform="translate(108.568 75.583)"/><path class="o" d="M422.076,445.338c-.658-3.1,2.6-3.479,2.6-3.479s2.123-2.715,7.206-2.385,4.356,7.574,4.356,7.574a17.54,17.54,0,0,0-5.055-.15,29.258,29.258,0,0,0,0,3.869l-1.918-.18s.205-2.759-.712-2.894-1.219,5.834-2.945,7.139a2.185,2.185,0,0,0-.219-.825h0a25.56,25.56,0,0,1-1.37-3,36.6,36.6,0,0,1-1.945-5.669Z" transform="translate(108.17 75.45)"/><path class="n" d="M429.47,447.233a1.555,1.555,0,0,0-1.016-1.1,1.387,1.387,0,0,0-1.4.355c-1.219,1,0,4.5,1.233,4.5S429.976,449.063,429.47,447.233Z" transform="translate(108.362 76.585)"/><path class="db" d="M426.348,452.03a4.357,4.357,0,0,0,.534,1.38,10.484,10.484,0,0,0,3.795,2.175l-.219,2.2S426.1,455.944,426.348,452.03Z" transform="translate(108.413 77.609)"/><g class="dc" transform="translate(556.389 536.645)"><path class="t" d="M443.529,458.009Z" transform="translate(-443.529 -458.009)"/><rect class="t" width="0.082" height="8.428" transform="translate(0 0)"/><rect class="u" width="0.082" height="8.428" transform="translate(0.082 0)"/><rect class="v" width="0.082" height="8.428" transform="translate(0.164 0)"/><rect class="w" width="0.082" height="8.428" transform="translate(0.247 0)"/><rect class="x" width="0.082" height="8.428" transform="translate(0.315 0)"/><rect class="y" width="0.082" height="8.428" transform="translate(0.397 0)"/><rect class="z" width="0.082" height="8.428" transform="translate(0.479 0)"/><rect class="aa" width="0.082" height="8.428" transform="translate(0.562 0)"/><rect class="ab" width="0.082" height="8.428" transform="translate(0.644 0)"/><rect class="ac" width="0.082" height="8.428" transform="translate(0.712 0)"/><rect class="ad" width="0.082" height="8.428" transform="translate(0.795 0)"/><rect class="ae" width="0.082" height="8.428" transform="translate(0.877 0)"/><rect class="af" width="0.082" height="8.428" transform="translate(0.959 0)"/><rect class="ag" width="0.082" height="8.428" transform="translate(1.041 0)"/><rect class="ah" width="0.082" height="8.428" transform="translate(1.123 0)"/><rect class="ai" width="0.082" height="8.428" transform="translate(1.192 0)"/><rect class="aj" width="0.082" height="8.428" transform="translate(1.274 0)"/><rect class="ak" width="0.082" height="8.428" transform="translate(1.356 0)"/><rect class="al" width="0.082" height="8.428" transform="translate(1.438 0)"/><rect class="am" width="0.082" height="8.428" transform="translate(1.521 0)"/><rect class="an" width="0.082" height="8.428" transform="translate(1.589 0)"/><rect class="ao" width="0.082" height="8.428" transform="translate(1.671 0)"/><rect class="ap" width="0.082" height="8.428" transform="translate(1.754 0)"/><rect class="aq" width="0.082" height="8.428" transform="translate(1.836 0)"/><rect class="ar" width="0.082" height="8.428" transform="translate(1.918 0)"/><rect class="as" width="0.082" height="8.428" transform="translate(1.986 0)"/><rect class="at" width="0.082" height="8.428" transform="translate(2.069 0)"/><rect class="au" width="0.082" height="8.428" transform="translate(2.151 0)"/><rect class="av" width="0.082" height="8.428" transform="translate(2.233 0)"/><rect class="aw" width="0.082" height="8.428" transform="translate(2.315 0)"/><rect class="ax" width="0.082" height="8.428" transform="translate(2.384 0)"/><rect class="ay" width="0.082" height="8.428" transform="translate(2.466 0)"/><rect class="az" width="0.082" height="8.428" transform="translate(2.548 0)"/><rect class="ba" width="0.082" height="8.428" transform="translate(2.63 0)"/><rect class="bb" width="0.082" height="8.428" transform="translate(2.712 0)"/><rect class="bc" width="0.082" height="8.428" transform="translate(2.795 0)"/><rect class="bd" width="0.082" height="8.428" transform="translate(2.863 0)"/><rect class="be" width="0.082" height="8.428" transform="translate(2.945 0)"/><rect class="bf" width="0.082" height="8.428" transform="translate(3.028 0)"/><rect class="bg" width="0.082" height="8.428" transform="translate(3.11 0)"/><rect class="bh" width="0.082" height="8.428" transform="translate(3.192 0)"/><rect class="bi" width="0.082" height="8.428" transform="translate(3.26 0)"/><rect class="bj" width="0.082" height="8.428" transform="translate(3.343 0)"/><rect class="bk" width="0.082" height="8.428" transform="translate(3.425 0)"/><rect class="bl" width="0.082" height="8.428" transform="translate(3.507 0)"/><rect class="bm" width="0.082" height="8.428" transform="translate(3.589 0)"/><rect class="bn" width="0.082" height="8.428" transform="translate(3.658 0)"/><rect class="bo" width="0.082" height="8.428" transform="translate(3.74 0)"/><rect class="bp" width="0.082" height="8.428" transform="translate(3.822 0)"/><rect class="bq" width="0.082" height="8.428" transform="translate(3.904 0)"/><rect class="br" width="0.082" height="8.428" transform="translate(3.986 0)"/><rect class="bs" width="0.082" height="8.428" transform="translate(4.055 0)"/><rect class="bt" width="0.082" height="8.428" transform="translate(4.137 0)"/><rect class="bu" width="0.082" height="8.428" transform="translate(4.219 0)"/><rect class="bv" width="0.082" height="8.428" transform="translate(4.302 0)"/><rect class="bw" width="0.082" height="8.428" transform="translate(4.384 0)"/><rect class="bx" width="0.082" height="8.428" transform="translate(4.452 0)"/><rect class="by" width="0.082" height="8.428" transform="translate(4.535 0)"/><rect class="bz" width="0.082" height="8.428" transform="translate(4.617 0)"/><rect class="ca" width="0.082" height="8.428" transform="translate(4.699 0)"/><rect class="cb" width="0.082" height="8.428" transform="translate(4.781 0)"/><rect class="cc" width="0.082" height="8.428" transform="translate(4.863 0)"/><rect class="cd" width="0.082" height="8.428" transform="translate(4.932 0)"/><rect class="ce" width="0.082" height="8.428" transform="translate(5.014 0)"/><rect class="cf" width="0.082" height="8.428" transform="translate(5.096 0)"/><path class="cf" d="M448.368,465.192Z" transform="translate(-443.19 -456.778)"/></g><path class="dd" d="M447.064,459.651s-2.082,1.245-1.932,1.635a.648.648,0,0,0,.411.45l-.644.93a.646.646,0,0,0,.808.75s-.178.81.685.57c0,0,.1.6.521.555a7.5,7.5,0,0,0,1.712-.885s.206-.33-.192-.825a.963.963,0,0,0-.178-.99,1.053,1.053,0,0,0-.343-.93s.192-1.11-.63-1.365Z" transform="translate(113.082 78.899)"/><g class="de" transform="translate(552.491 530.254)"><path class="t" d="M440.187,452.555Z" transform="translate(-440.187 -452.555)"/><rect class="t" width="0.123" height="8.054" transform="translate(0)"/><rect class="u" width="0.123" height="8.054" transform="translate(0.123)"/><rect class="v" width="0.137" height="8.054" transform="translate(0.26)"/><rect class="w" width="0.123" height="8.054" transform="translate(0.384)"/><rect class="x" width="0.123" height="8.054" transform="translate(0.521)"/><rect class="y" width="0.123" height="8.054" transform="translate(0.644)"/><rect class="z" width="0.123" height="8.054" transform="translate(0.781)"/><rect class="aa" width="0.123" height="8.054" transform="translate(0.904)"/><rect class="ab" width="0.123" height="8.054" transform="translate(1.041)"/><rect class="ac" width="0.123" height="8.054" transform="translate(1.164)"/><rect class="ad" width="0.137" height="8.054" transform="translate(1.301)"/><rect class="ae" width="0.123" height="8.054" transform="translate(1.425)"/><rect class="af" width="0.123" height="8.054" transform="translate(1.562)"/><rect class="ag" width="0.123" height="8.054" transform="translate(1.685)"/><rect class="ah" width="0.123" height="8.054" transform="translate(1.822)"/><rect class="ai" width="0.123" height="8.054" transform="translate(1.945)"/><rect class="aj" width="0.123" height="8.054" transform="translate(2.082)"/><rect class="ak" width="0.123" height="8.054" transform="translate(2.206)"/><rect class="al" width="0.137" height="8.054" transform="translate(2.343)"/><rect class="am" width="0.123" height="8.054" transform="translate(2.466)"/><rect class="an" width="0.123" height="8.054" transform="translate(2.603)"/><rect class="ao" width="0.123" height="8.054" transform="translate(2.726)"/><rect class="ap" width="0.123" height="8.054" transform="translate(2.863)"/><rect class="aq" width="0.123" height="8.054" transform="translate(2.986)"/><rect class="ar" width="0.123" height="8.054" transform="translate(3.11)"/><rect class="as" width="0.123" height="8.054" transform="translate(3.247)"/><rect class="at" width="0.123" height="8.054" transform="translate(3.37)"/><rect class="au" width="0.123" height="8.054" transform="translate(3.507)"/><rect class="av" width="0.123" height="8.054" transform="translate(3.63)"/><rect class="aw" width="0.137" height="8.054" transform="translate(3.767)"/><rect class="ax" width="0.123" height="8.054" transform="translate(3.891)"/><rect class="ay" width="0.123" height="8.054" transform="translate(4.028)"/><rect class="az" width="0.123" height="8.054" transform="translate(4.151)"/><rect class="ba" width="0.123" height="8.054" transform="translate(4.288)"/><rect class="bb" width="0.123" height="8.054" transform="translate(4.411)"/><rect class="bc" width="0.123" height="8.054" transform="translate(4.548)"/><rect class="bd" width="0.123" height="8.054" transform="translate(4.672)"/><rect class="be" width="0.137" height="8.054" transform="translate(4.809)"/><rect class="bf" width="0.123" height="8.054" transform="translate(4.932)"/><rect class="bg" width="0.123" height="8.054" transform="translate(5.069)"/><rect class="bh" width="0.123" height="8.054" transform="translate(5.192)"/><rect class="bi" width="0.123" height="8.054" transform="translate(5.329)"/><rect class="bj" width="0.123" height="8.054" transform="translate(5.452)"/><rect class="bk" width="0.123" height="8.054" transform="translate(5.589)"/><rect class="bl" width="0.123" height="8.054" transform="translate(5.713)"/><rect class="bm" width="0.123" height="8.054" transform="translate(5.85)"/><rect class="bn" width="0.137" height="8.054" transform="translate(5.973)"/><rect class="bo" width="0.123" height="8.054" transform="translate(6.11)"/><rect class="bp" width="0.123" height="8.054" transform="translate(6.233)"/><rect class="bq" width="0.123" height="8.054" transform="translate(6.37)"/><rect class="br" width="0.123" height="8.054" transform="translate(6.494)"/><rect class="bs" width="0.123" height="8.054" transform="translate(6.631)"/><rect class="bt" width="0.123" height="8.054" transform="translate(6.754)"/><rect class="bu" width="0.123" height="8.054" transform="translate(6.877)"/><rect class="bv" width="0.137" height="8.054" transform="translate(7.014)"/><rect class="bw" width="0.123" height="8.054" transform="translate(7.151)"/><rect class="bx" width="0.123" height="8.054" transform="translate(7.274)"/><rect class="by" width="0.123" height="8.054" transform="translate(7.398)"/><rect class="bz" width="0.123" height="8.054" transform="translate(7.535)"/><rect class="ca" width="0.123" height="8.054" transform="translate(7.658)"/><rect class="cb" width="0.123" height="8.054" transform="translate(7.795)"/><rect class="cc" width="0.123" height="8.054" transform="translate(7.918)"/><rect class="cd" width="0.123" height="8.054" transform="translate(8.055)"/><rect class="ce" width="0.137" height="8.054" transform="translate(8.179)"/><rect class="cf" width="0.123" height="8.054" transform="translate(8.316)"/><path class="cf" d="M448.112,459.43Z" transform="translate(-439.632 -451.377)"/></g><path class="n" d="M443.538,461.134a7.2,7.2,0,0,1,2.521.345c.206.09.384.21.384.465s-.315.54-1.027.6a5.418,5.418,0,0,0-1.575.495S443.1,462.859,443.538,461.134Z" transform="translate(112.635 79.17)"/><path class="df" d="M428.868,516.6l-.37,2.16-4.11-12C424.881,507.934,428.868,516.6,428.868,516.6Z" transform="translate(107.929 87.007)"/><rect class="r" width="83.046" height="132.485" rx="8.194" transform="translate(185.19 327.723)"/><rect class="dg" width="4.302" height="35.843" transform="translate(264.601 413.293)"/><rect class="dg" width="4.302" height="31.824" transform="translate(254.629 417.312)"/><rect class="dg" width="4.302" height="26.605" transform="translate(243.805 422.532)"/><rect class="dg" width="4.302" height="20.021" transform="translate(232.692 429.117)"/><path class="dg" d="M161.587,375.127l-.945-.36,8.124-24.925,17.59-5.084,6.329-27.355,13.576-6.554,3.041-21.266.973.165L207.152,311.6l-13.631,6.584-6.343,27.46-17.659,5.114Z" transform="translate(42.407 49.729)"/><path class="r" d="M187.233,335.6a3.117,3.117,0,0,1,.29,3.2,2.6,2.6,0,0,1-2.594,1.516,2.716,2.716,0,0,1-2.27-2.046,3.064,3.064,0,0,1,.861-3.078,2.479,2.479,0,0,1,1.933-.643,2.574,2.574,0,0,1,1.779,1.048Z" transform="translate(46.455 57.436)"/><path class="dg" d="M187.262,340.176a2.956,2.956,0,0,1-4.416-.478,3.661,3.661,0,0,1,.439-4.835,2.956,2.956,0,0,1,4.416.483A3.661,3.661,0,0,1,187.262,340.176Zm-3.343-4.5a2.494,2.494,0,0,0-.3,3.29,2.013,2.013,0,0,0,3.005.329,2.494,2.494,0,0,0,.3-3.289,2.082,2.082,0,0,0-1.465-.818,2.021,2.021,0,0,0-1.562.564Z" transform="translate(46.387 57.359)"/><path class="r" d="M193.264,312.4a3.117,3.117,0,0,1,.29,3.2,2.6,2.6,0,0,1-2.594,1.516,2.716,2.716,0,0,1-2.27-2.046,3.064,3.064,0,0,1,.861-3.078,2.491,2.491,0,0,1,3.713.4Z" transform="translate(47.99 53.454)"/><path class="dg" d="M193.226,316.962a2.943,2.943,0,0,1-4.387-.5,3.645,3.645,0,0,1,.45-4.8,2.942,2.942,0,0,1,4.39.48A3.661,3.661,0,0,1,193.226,316.962Zm-3.329-4.5a2.494,2.494,0,0,0-.3,3.29,2.013,2.013,0,0,0,3.005.329,2.494,2.494,0,0,0,.3-3.289,2.025,2.025,0,0,0-3.014-.3Z" transform="translate(47.915 53.375)"/><path class="r" d="M205.76,306.638a3.117,3.117,0,0,1,.29,3.2,2.6,2.6,0,0,1-2.594,1.516,2.716,2.716,0,0,1-2.27-2.046,3.064,3.064,0,0,1,.861-3.078,2.491,2.491,0,0,1,3.713.4Z" transform="translate(51.17 52.465)"/><path class="dg" d="M205.722,311.2a2.943,2.943,0,0,1-4.387-.5,3.645,3.645,0,0,1,.45-4.8,2.942,2.942,0,0,1,4.39.48A3.661,3.661,0,0,1,205.722,311.2Zm-3.343-4.5a2.51,2.51,0,0,0-.3,3.313,2.026,2.026,0,0,0,3.026.33,2.51,2.51,0,0,0,.3-3.313,2.036,2.036,0,0,0-3-.3Z" transform="translate(51.097 52.386)"/><path class="r" d="M170.9,340.221a3.117,3.117,0,0,1,.29,3.2,2.6,2.6,0,0,1-2.594,1.516,2.716,2.716,0,0,1-2.27-2.046,3.064,3.064,0,0,1,.861-3.078,2.49,2.49,0,0,1,3.713.4Z" transform="translate(42.298 58.231)"/><path class="dg" d="M170.859,344.784a2.943,2.943,0,0,1-4.387-.5,3.645,3.645,0,0,1,.45-4.8,2.942,2.942,0,0,1,4.39.48A3.678,3.678,0,0,1,170.859,344.784Zm-3.343-4.5a2.51,2.51,0,0,0-.3,3.313,2.026,2.026,0,0,0,3.026.33,2.51,2.51,0,0,0,.3-3.313,2.038,2.038,0,0,0-3.028-.3Z" transform="translate(42.218 58.152)"/><rect class="dh" width="26.44" height="5.999" rx="1.767" transform="translate(193.689 365.314)"/><rect class="dh" width="26.44" height="5.999" rx="1.767" transform="translate(193.689 354.828)"/><path class="o" d="M136.387,321.028s-.767,8.263.63,10.348c0,0-3.7-.885-4.548-2.28S136.387,321.028,136.387,321.028Z" transform="translate(9.267 55.118)"/><path class="n" d="M157.729,343.768l1.548-1.14a3.763,3.763,0,0,1,1.7,0,4.238,4.238,0,0,1,1.863.765.755.755,0,0,1,.137.615,1.567,1.567,0,0,1-.288.675.932.932,0,0,1-.164.84.814.814,0,0,1-.3.795s.1.48-.219.675a6.019,6.019,0,0,0-.945,0,10.214,10.214,0,0,1-3.041-.45S156.5,346.227,157.729,343.768Z" transform="translate(11.008 58.809)"/><path class="cs" d="M159.877,344.163a4.508,4.508,0,0,1-.616.93c-.219.15,1.027,1.62,1.027,1.62S160.727,344.733,159.877,344.163Z" transform="translate(11.147 59.089)"/><path class="n" d="M157.023,343.757a5.355,5.355,0,0,0,1.37-.36c.521-.27-.1,2.879-.1,2.879a5.144,5.144,0,0,0-2.1-.99C155.379,345.257,157.023,343.757,157.023,343.757Z" transform="translate(10.919 58.954)"/><path class="di" d="M124.507,415.119a52.326,52.326,0,0,0,3.548,5.114s1.849,1.05,1.9,1.89c.11,1.575.178,2.5-2.233,2.58s-3.945,0-4.384-1.62a12.56,12.56,0,0,0-1.206-2.864l-.192,4.184h-.534s-.247-4.184-.288-4.784-.384-2.894.767-3.914a2.962,2.962,0,0,1,2.617-.585Z" transform="translate(8.474 71.256)"/><path class="di" d="M128.373,420.614a5.535,5.535,0,0,1-2.863,0c-1.562-.435-3.055-4.5-3.507-4.844l-.411-1.65h3.041a6.461,6.461,0,0,0,.521,2.265A38.419,38.419,0,0,0,128.373,420.614Z" transform="translate(8.512 71.1)"/><path class="di" d="M140.552,413.885a11.242,11.242,0,0,0,1.137,2.085c.548.78,2.26,3.989,3,4.214s3.069.675,3.274,2.1.315,2.43-1.973,2.535-3.781.255-4.877-1.5a12.373,12.373,0,0,0-2.836-3v4.574H137.4a43.452,43.452,0,0,0-.658-5.1A6.169,6.169,0,0,1,138,413.9C140.127,411.98,140.552,413.885,140.552,413.885Z" transform="translate(9.554 70.916)"/><path class="di" d="M144.62,420.134s-2.041.57-2.822,0-3.452-5.489-4.343-5.789c0,0,.863-1.89,3.028-.51C140.483,413.835,144.045,419.324,144.62,420.134Z" transform="translate(9.623 70.965)"/><path class="dj" d="M123.508,355.419a24.544,24.544,0,0,0-3.671,9c-.781,4.874.466,21.221.425,23.636s-1.932,9.9-1.521,14.427,2.548,23.471,2.548,23.471l5-.105s-1-20.426-.753-22.331,1.082-10,1.178-10.783,5.7-21.521,5.7-25.03S130.468,349.69,123.508,355.419Z" transform="translate(8.309 60.805)"/><path class="dj" d="M137.385,356.745s4.74,19.811,5.3,22.5,1.685,6.329,1.644,6.824-.6,9-.6,9l-1.37,28.78h-4.973s-1.6-18.312-1.863-22.016,1.849-9.4,1.37-10.963-8.22-19.661-8.22-19.661S122.768,351,137.385,356.745Z" transform="translate(8.925 61.083)"/><path class="co" d="M135.478,331.3a5.6,5.6,0,0,1,3.329,1.875,24.927,24.927,0,0,1,3.151,5.249c.37.9,5.63,9.193,5.9,9.388s2.576-.48,4.411-.645a37.394,37.394,0,0,0,7.507-1.95l.658,3.719s-11.056,3.9-13.6,3.209c-3.123-.84-10.3-10.918-10.3-10.918S131.176,334.355,135.478,331.3Z" transform="translate(9.367 56.882)"/><path class="co" d="M133.13,330.06a25.619,25.619,0,0,0,3.315,1.5c.849.18,4.11,4.889,4.74,6.6s0,4.289-1.192,7.319,0,4.034-.616,7.064a90.888,90.888,0,0,0-.438,12.943c.1,1.68-15.8,4.844-18.96,1.785,0,0,2.137-7.754,4.685-10.663.548-.63.493-4.814.123-5.864s-4.617-8.848-4.617-8.848-.3-7.919,1.534-9.478c1.6-1.365,5.973-1.845,6.768-2.145a12.263,12.263,0,0,1,4.658-.21Z" transform="translate(8.399 56.65)"/><path class="dk" d="M133.019,336.178l1.521-1.92-1.37-5.024A35.836,35.836,0,0,0,133.019,336.178Z" transform="translate(9.305 56.526)"/><path class="n" d="M124.938,331.312a4.188,4.188,0,0,0-4.863,2.76c-1.781,3.734-1.37,5.744-1.74,7.424s-2.055,12.913-2.151,13.408-1.671,6.194-1.466,7.948,1.671,15,1.6,15.492,2.822-.435,2.822-.435-.11-13.5,0-14.682.205-7,.973-8.518,2.658-10.753,3.069-11.7S127.6,332.512,124.938,331.312Z" transform="translate(8.03 56.869)"/><path class="n" d="M133.755,327.942q-.35,3.256-.384,6.539s-2.562,2.789-5.48-3.269a9.089,9.089,0,0,0,.3-5.909C127.3,321.9,133.755,327.942,133.755,327.942Z" transform="translate(8.953 55.673)"/><path class="n" d="M133.192,332.986v2.565l-2.74-2.655Z" transform="translate(9.132 57.154)"/><path class="dk" d="M133.462,336.06l-1.219-1.65-4.11-4.484-1.534.75Z" transform="translate(8.863 56.645)"/><path class="dl" d="M134.493,334.259l1.877.57-3.178-5.594Z" transform="translate(9.324 56.526)"/><path class="dl" d="M132.247,334.456l-1.726,3.014-3.987-6.854,1.712-.96Z" transform="translate(8.858 56.599)"/><path class="dk" d="M140.122,345.176a24.782,24.782,0,0,0,0-7.184s-.356,2.19-1.233,5.609Z" transform="translate(9.723 58.03)"/><path class="dk" d="M122.219,344.575l1.795-6.494a56.142,56.142,0,0,1-.767,8.458S122.63,345.34,122.219,344.575Z" transform="translate(8.556 58.045)"/><path class="dm" d="M183.067,317.315l-26.714,36.848.932.795Z" transform="translate(40.488 54.484)"/><path class="dd" d="M162.476,343.238s-2-.21-2.069.135a.612.612,0,0,0,.1.525l-.863.33a.6.6,0,0,0,.247.945s-.479.48.233.765c0,0-.192.465.123.66a6.168,6.168,0,0,0,1.6.27s.288-.12.219-.675a.782.782,0,0,0,.3-.795.883.883,0,0,0,.164-.84s.63-.675.151-1.29Z" transform="translate(11.166 58.919)"/><path class="n" d="M159.259,342.614a7.509,7.509,0,0,1,1.63,1.5c.1.18.164.36,0,.525s-.466.225-.986-.105a5.045,5.045,0,0,0-1.37-.48S158.19,343.619,159.259,342.614Z" transform="translate(11.095 58.823)"/><path class="n" d="M131.781,313.077s4.521-.135,5.357,5.729-1.1,10.993-1.849,11.818-5.274.21-6.343-2.834-2.617-5.264-2.384-7.874S126.219,312.972,131.781,313.077Z" transform="translate(8.858 53.753)"/><path class="o" d="M137.519,321.143s1.206-7.3-4.795-8.608-8.11,3.179-8.672,5.864.1,10.2.1,10.2a31.441,31.441,0,0,0,6.4,4.844s-2-8.023-1.247-13.767a23.455,23.455,0,0,0,8.11,0S137.505,320.843,137.519,321.143Z" transform="translate(8.669 53.621)"/><path class="p" d="M133.511,328.558a7.277,7.277,0,0,1-3.7-1.5,8.849,8.849,0,0,0,3.6,2.82A11.812,11.812,0,0,0,133.511,328.558Z" transform="translate(9.088 56.152)"/><path class="dn" d="M.2.265,17.975,0l-.2,14.331L0,14.6Z" transform="matrix(0.987, -0.16, 0.16, 0.987, 115.894, 426.802)"/><path class="n" d="M115.685,376.174a2.7,2.7,0,0,1-.3-.765s0-.51,0-.87a1.346,1.346,0,0,0,0-.27,5.056,5.056,0,0,1-.205-1.5,35.5,35.5,0,0,1,.877-3.539H117.6l1.452-.165a34.2,34.2,0,0,1,1.795,4.3v.18a7.073,7.073,0,0,1-.288,1.215c0,.09-.233,1.11-.479,1.245a.862.862,0,0,1-.9,0,2.085,2.085,0,0,1-1.219.2,1.264,1.264,0,0,1-1.219,0S115.986,376.429,115.685,376.174Z" transform="translate(8.063 63.365)"/><path class="co" d="M124.94,331.312a4.188,4.188,0,0,0-4.863,2.76,18.325,18.325,0,0,0-2.069,7.139c-.219,1.725-2.384,12-2.48,12.433s-.822,6.884-.863,9.208c0,1.77.342,13.363.274,13.812s4.891-.78,4.891-.78-.548-10.693-.438-11.818a67.477,67.477,0,0,1,.808-8.338c.589-1.935,2.918-11.638,3.315-12.6S127.6,332.512,124.94,331.312Z" transform="translate(8.027 56.869)"/><path class="do" d="M274.047,417.585l.315-3.284a21.24,21.24,0,0,0-4.726.36s.37,2.759.411,3.164S274.047,417.585,274.047,417.585Z" transform="translate(68.587 71.128)"/><path class="dp" d="M267.287,424.016c5.028,0,7.453.33,8-.57s-.781-6.6-.781-6.6a9.6,9.6,0,0,1-4.11.195,11.162,11.162,0,0,1-2.466,2.385c-1.219.72-3.123,1-3.836,1.755S262.259,424.061,267.287,424.016Z" transform="translate(67.407 71.568)"/><path class="do" d="M247.569,417.585l.329-3.284a21.24,21.24,0,0,0-4.726.36s.356,2.759.411,3.164S247.569,417.585,247.569,417.585Z" transform="translate(61.855 71.128)"/><path class="dp" d="M240.976,424.016c5.028-.15,7.453.33,7.987-.57s-.781-6.6-.781-6.6a8.71,8.71,0,0,1-4.11.195,11.162,11.162,0,0,1-2.466,2.385c-1.219.72-5.672,1.32-6.384,2.07S233.893,424.211,240.976,424.016Z" transform="translate(60.19 71.568)"/><path class="h" d="M269.05,353.842a44.639,44.639,0,0,1,1.822,12.748c-.274,5.894,1.1,12.343,1.644,18.507.63,6.854,3.165,23.111,3.26,26.785s-.4,15.387-.4,15.387l-5.1.135s-4.274-28.4-5.384-31.314-6.6-23.561-6.85-25.885S269.05,353.842,269.05,353.842Z" transform="translate(66.332 60.762)"/><path class="h" d="M248.71,355.187s-2.74,16.152-3.165,19.766-.616,17.457-.795,19.706-1.233,29.514-2.219,32.859h6.507s5-19.811,5-29.185,3.863-20.381,6.357-26.56,8.22-6.329,9.74-17.817C270.136,353.957,250.792,351.542,248.71,355.187Z" transform="translate(62.851 60.647)"/><path class="n" d="M261.285,307.826s-5.137-2.1-7.507,2.175-2.137,12.853.452,13.9,6.466.495,7.8-2.175a23,23,0,0,0,2.466-9.133,5.6,5.6,0,0,0-3.206-4.769Z" transform="translate(64.53 52.763)"/><path class="n" d="M254.909,322a5.186,5.186,0,0,1-.137,2.2c-.342.72,6.452.75,6.452.75a51.812,51.812,0,0,1,1.6-7.289C263.868,314.338,254.909,322,254.909,322Z" transform="translate(64.981 54.397)"/><path class="dq" d="M262.971,319.37s-.466.84-2.384.525-4.26-3.119-5.055-3.434-.808-.825-.808-.825l-.507.81h-.849s.781-2.5-.384-3.524,1.206-8.069,7.357-5.729c0,0,4.4.96,4.672,3.884A14.473,14.473,0,0,1,262.971,319.37Z" transform="translate(64.673 52.661)"/><path class="dr" d="M254.387,323.337s0-1.38.6-1.5a36.343,36.343,0,0,1,7.042-.435v1.6S260.675,323.907,254.387,323.337Z" transform="translate(64.859 55.177)"/><path class="n" d="M254.717,313.605c.11-.495,1.26-1.9,1.7-.39s-.671,3.539-1.288,3.359S254.443,314.85,254.717,313.605Z" transform="translate(64.61 53.658)"/><path class="br" d="M255.787,323.105s-3.151,1.245-6.85,3a8.334,8.334,0,0,0-4.658,6.809c-.247,2.7-2.877,17.037-3.37,18.252s-6.315,20.7-6.521,21.1,4.754,2.669,5.083,2.49,5.644-17.787,6.178-19.091c0,0,3.055-10.5,3.137-12.118,0,0,.1,4.5.26,5.744s-2.74,25.69-2.644,26.365,13.11,1.5,18.33.9a58.5,58.5,0,0,0,9.411-1.95s-4.11-19.271-3.973-21.416c.274-4.664,1.7-13.5,1.7-13.5l4.247,8.758-5.48,15.327,1.247,4.664s10.11-16.737,10.439-18.252a8.864,8.864,0,0,0-1.027-4.739c-.534-1.26-4.11-10.828-4.863-12.178s-2.206-6.749-5.562-8.248a49.076,49.076,0,0,0-7.507-2.295Z" transform="translate(61.785 55.416)"/><path class="ds" d="M0,0,24.734.56l.391,18.676L.391,18.676Z" transform="translate(288.364 411.603) rotate(14.38)"/><path class="dt" d="M232.544,368.374a17.148,17.148,0,0,1-.932,1.5c-.247.285.616.555.973.21S232.544,368.374,232.544,368.374Z" transform="translate(58.737 63.245)"/><path class="du" d="M237.441,373.139a3.18,3.18,0,0,0,.493-.765s.11-.54.219-.93a.667.667,0,0,1,.1-.285,6.026,6.026,0,0,0,.548-1.59c.1-.75.4-4.079.4-4.079l-1.849-.51-1.48-.345a31.4,31.4,0,0,0-3.37,4.184v.195a8.4,8.4,0,0,0,0,1.395c0,.105,0,1.275.26,1.5a.977.977,0,0,0,.986.255,2.228,2.228,0,0,0,1.26.525,1.441,1.441,0,0,0,1.37.27S237.03,373.424,237.441,373.139Z" transform="translate(59.227 62.604)"/><path class="br" d="M244.511,354.188S240.277,368.2,239.5,369.68a13.432,13.432,0,0,1-5.083-2.49l4.644-15.1Z" transform="translate(59.885 60.451)"/><path class="dv" d="M606.721,383.006s15.686-50.376-14.261-65.988-55.387,6.9-60.168,19.121-3.534,34.494.562,49.926,3.507,38.993-5.4,46.956-19.933,21-19.385,47.646c.343,16.5,59.456-42.307,59.456-42.307Z" transform="translate(140.599 53.542)"/><path class="cz" d="M565.245,423.9s-24.659,6-34.372,12.223-31.509,35-31.509,47.361S594.246,507.4,594.246,507.4l17.974,71.867s47.948-12.808,53.675-23.441-18.22-86.774-22.316-102.176c-4.178-15.732-21.358-26.7-41.345-29.755a125.7,125.7,0,0,0-36.989,0Z" transform="translate(147.173 72.577)"/><path class="n" d="M596.786,423.772s-.548,32.739-24.276,33.714-18.782-31.4-18.782-31.4S571.072,418.373,596.786,423.772Z" transform="translate(145.301 72.433)"/><path class="dv" d="M604.867,339.119s8.4,52.67-15.508,90.718C564.6,469.25,604.867,339.119,604.867,339.119Z" transform="translate(150.319 58.238)"/><path class="n" d="M591.491,405.3s-1.658,15.657,1.1,25.405-36.276,10-36.249,1.995c0-9.1,3.987-16.707.247-32.3S591.491,405.3,591.491,405.3Z" transform="translate(145.228 67.745)"/><path class="p" d="M560.9,405.426s12.33,14.052,28.07,1.5c0,0-1.3,9-12.631,10.138S560.9,405.426,560.9,405.426Z" transform="translate(145.409 69.608)"/><path class="n" d="M577.578,323.624s31.153,10.093,26.7,57.409-24.8,44.887-26.7,45.232-26.029,2.085-33.687-55.325S577.578,323.624,577.578,323.624Z" transform="translate(144.834 55.461)"/><path class="dv" d="M569.684,345.149s16.933,29.47,34.742,36.308c0,0,9.727-49.491-30.44-59.809s-33.879,49.941-30.892,65.988a131.842,131.842,0,0,1,26.591-42.487Z" transform="translate(144.631 55.03)"/><path class="ah" d="M546.582,341.018s8.918-18.881,23.96-19.736,23.988,13.5,23.988,13.5c-4.342-10.121-13.765-16.446-23.974-16.092C552.459,318.642,546.582,341.018,546.582,341.018Z" transform="translate(144.081 54.715)"/><path class="dw" d="M612.921,464.564l10.562,107.485H484.46L473.9,464.564Z" transform="translate(137.173 79.784)"/><path class="dw" d="M620.434,569.1H480.206l-10.7-108.82H609.748Zm-139.146-1.32h137.8L608.652,461.61H470.863Z" transform="translate(136.084 79.047)"/><path class="dx" d="M552.967,510.478c1.247,6.689-1.6,12.973-6.37,14.037s-9.59-3.494-10.877-10.183,1.6-12.973,6.357-14.037S551.761,503.79,552.967,510.478Z" transform="translate(137.642 85.873)"/><rect class="dw" width="25.947" height="10.813" transform="translate(782.99 651.873) rotate(180)"/><path class="d" d="M527.433,287.641c-11.822.008-21.41-10.479-21.412-23.421s9.586-23.436,21.408-23.431,21.395,10.494,21.39,23.436c-.013,12.924-9.579,23.4-21.385,23.416Zm0-45.5c-11.147-.008-20.188,9.878-20.193,22.081s9.028,22.1,20.175,22.1,20.186-9.894,20.184-22.1c-.04-12.168-9.05-22.016-20.166-22.041Z" transform="translate(132.808 41.345)"/><path class="dy" d="M180.962,502.718v-1.95c3.63,0,7.288-.15,10.864-.33l.082,1.98C188.292,502.613,184.62,502.718,180.962,502.718ZM170,502.6c-3.589-.1-7.274-.285-10.96-.54l.11-1.995c3.644.255,7.3.435,10.877.555Zm32.783-1-.151-1.98c3.589-.345,7.22-.765,10.8-1.275l.233,1.98c-3.576.54-7.233.9-10.85,1.3Zm-54.62-.495c-3.726-.4-7.384-.915-10.864-1.5l.288-1.965c3.439.615,7.069,1.125,10.754,1.5Zm76.32-2.534-.3-1.95c3.507-.645,7.1-1.38,10.686-2.19l.37,1.95c-3.589.84-7.206,1.575-10.727,2.22Zm-97.938-1.38c-3.658-.96-7.206-2.1-10.549-3.344l.6-1.89a106.383,106.383,0,0,0,10.371,3.3Zm119.432-3.389-.425-1.935c3.329-.885,6.85-1.845,10.549-3l.466,1.92C252.748,491.95,249.282,492.91,245.98,493.794Zm-140.091-4.5a77.291,77.291,0,0,1-9.59-5.909l1.014-1.665a77.275,77.275,0,0,0,9.37,5.789Zm161.161-1.575-.521-1.95,4.521-1.41,5.987-1.845.479,1.92-5.946,1.785Zm94.787-1.665a95.851,95.851,0,0,0-9.987-4.5l.617-1.875a110.448,110.448,0,0,1,10.151,4.619Zm-73.786-4.679-.438-1.92c3.9-1.095,7.4-1.995,10.658-2.729l.356,1.95c-3.219.69-6.685,1.545-10.576,2.655Zm53.428-3.209a79.179,79.179,0,0,0-10.631-1.92l.178-1.98a80.276,80.276,0,0,1,10.864,1.965Zm-32.18-1.5-.233-1.965a94.38,94.38,0,0,1,10.96-.93v1.995a94.58,94.58,0,0,0-10.713.885Zm-221.754-.69a65.685,65.685,0,0,1-7.384-9l1.466-1.185a63.573,63.573,0,0,0,7.165,8.728ZM74.408,456.661a74.031,74.031,0,0,1-3.973-11.293l1.74-.555a73.182,73.182,0,0,0,3.932,10.948Zm-6.233-23.111a104,104,0,0,1-.74-12h1.822a99.446,99.446,0,0,0,.726,11.788Zm1.63-23.816L68,409.525c.356-3.9.918-7.9,1.63-11.908l1.781.39C70.695,401.892,70.161,405.836,69.8,409.735Zm4.11-23.246-1.754-.555a112.531,112.531,0,0,1,3.576-11.428l1.74.735a115.224,115.224,0,0,0-3.507,11.188Z" transform="translate(4.721 64.322)"/><path class="dy" d="M640.759,191.661s-3.069-3-8.507-7.394l1.1-1.6c5.48,4.5,8.59,7.5,8.617,7.5Zm-17.4-14.262c-2.987-2.175-6.083-4.319-9.192-6.374l.945-1.71c3.124,2.07,6.247,4.229,9.261,6.434ZM604.73,165.131c-3.192-1.89-6.453-3.7-9.686-5.4l.781-1.8c3.26,1.71,6.548,3.539,9.768,5.444Zm-19.6-10.273c-3.37-1.5-6.768-3-10.138-4.289l.617-1.875c3.384,1.32,6.85,2.774,10.22,4.334Zm-138.16-2.43v-1.995a71.188,71.188,0,0,0,10.727-1.095l.288,1.965a72.533,72.533,0,0,1-11.014,1.125Zm-10.96-.63a72.816,72.816,0,0,1-10.809-2.325l.466-1.92a73.814,73.814,0,0,0,10.562,2.28Zm32.714-3.209-.521-1.9c1.178-.375,2.356-.795,3.548-1.23,2.26-.825,4.589-1.6,6.85-2.325l.493,1.92c-2.26.7-4.548,1.5-6.85,2.295-1.164.45-2.37.87-3.562,1.245Zm95.979-1.71c-3.48-1.125-7.014-2.145-10.494-3l.411-1.935c3.507.885,7.083,1.92,10.6,3Zm-149.941-1.17c-3.206-1.365-6.494-3-10.042-4.829l.795-1.8c3.507,1.86,6.754,3.419,9.9,4.769Zm74.9-3.434-.356-1.95c3.562-.78,7.206-1.5,10.836-1.92l.219,1.98c-3.6.48-7.22,1.11-10.74,1.89Zm53.908-.735c-3.576-.645-7.206-1.17-10.754-1.5l.178-1.98c3.589.375,7.247.915,10.877,1.5Zm-319.568-1.89-.986-1.68c3.11-2.2,6.233-4.349,9.275-6.344l.932,1.71C230.2,135.316,227.089,137.446,223.993,139.651Zm287.114-.27-.082-1.98c3.617-.195,7.3-.225,10.96-.12v1.98Q516.477,139.1,511.107,139.381Zm-116.158-4.019c-3.082-1.83-6.137-3.719-9.59-5.8l.89-1.74c3.384,2.1,6.439,3.974,9.507,5.8Zm-152.325-7.994-.877-1.74c3.26-1.965,6.521-3.839,9.7-5.564l.808,1.785C249.1,123.589,245.871,125.418,242.624,127.368Zm133.283-3.629c-3.562-2.145-6.7-3.959-9.59-5.549l.808-1.785c2.932,1.6,6.11,3.434,9.686,5.579Zm-113.816-6.914-.726-1.83c3.425-1.635,6.85-3.134,10.179-4.5l.616,1.86C268.872,113.72,265.488,115.205,262.091,116.825ZM356.44,113.2q-5.22-2.407-10.124-4.169l.562-1.935c3.384,1.215,6.74,2.595,10.275,4.229Zm-73.977-4.5-.493-1.9c3.576-1.14,7.165-2.1,10.658-2.879l.356,1.95c-3.439.78-6.973,1.74-10.521,2.849Zm53.428-2.789a90.748,90.748,0,0,0-10.658-1.815l.205-1.98a93.89,93.89,0,0,1,10.836,1.935Zm-32.221-1.815-.192-1.98a100.921,100.921,0,0,1,10.96-.66v1.995a93.952,93.952,0,0,0-10.768.645Z" transform="translate(91.361 17.422)"/><path class="dz" d="M404.691,491.144l-45.7-14.547,13.7-4.529Z" transform="translate(94.451 81.051)"/><path class="ea" d="M403.506,491.1,386.423,472.31l-10.508,2.34Z" transform="translate(97.415 81.093)"/><path class="eb" d="M368.809,478.789l.37,5.789L404,489.992Z" transform="translate(96.18 82.204)"/><path class="dz" d="M186.735,166.06l40.29-24.655-13.85-1Z" transform="translate(48.906 24.106)"/><path class="ea" d="M186.735,165.542l12.4-21.821,10.4-.3Z" transform="translate(48.2 24.625)"/><path class="eb" d="M217.751,146.1l.808,5.549-31.824,13.438Z" transform="translate(48.561 25.084)"/></g></g></svg>