<svg xmlns="http://www.w3.org/2000/svg" width="324" height="28" viewBox="0 0 324 28"><defs><style>.a{font-size:22px;font-family:Ebrima-Bold, Ebrima;font-weight:700;letter-spacing:0.025em;}</style></defs><g transform="translate(-792 -1017)"><text class="a" transform="translate(825 1039)"><tspan x="0" y="0">Rights Reserved | RISKORY</tspan></text><path d="M12.607.563a12,12,0,1,0,12.044,12A12.022,12.022,0,0,0,12.607.563ZM18.3,17.341a7.26,7.26,0,0,1-5.335,2.213A6.829,6.829,0,0,1,5.943,12.51a6.826,6.826,0,0,1,6.982-6.939,7.006,7.006,0,0,1,5.023,1.882.579.579,0,0,1,.06.708L16.921,9.838a.584.584,0,0,1-.886.111,4.95,4.95,0,0,0-3.005-1.155,3.469,3.469,0,0,0-3.59,3.681,3.626,3.626,0,0,0,3.607,3.856,4.768,4.768,0,0,0,3.183-1.385.584.584,0,0,1,.9.051l1.192,1.624a.579.579,0,0,1-.027.719Z" transform="translate(791.438 1019.438)"/></g></svg>