<svg xmlns="http://www.w3.org/2000/svg" width="36.206" height="32.619" viewBox="0 0 36.206 32.619"><defs><style>.a{fill:#fffffe;}</style></defs><path class="a" d="M32.485,11.51c.023.357.023.714.023,1.07C32.508,23.462,25.041,36,11.395,36A19.5,19.5,0,0,1,0,32.3a13.854,13.854,0,0,0,1.792.1A13.96,13.96,0,0,0,11,28.89a7.575,7.575,0,0,1-6.938-5.708,8.458,8.458,0,0,0,1.4.127,7.122,7.122,0,0,0,1.953-.28A8.068,8.068,0,0,1,1.47,14.95v-.1a6.927,6.927,0,0,0,3.354,1.045A8.493,8.493,0,0,1,1.516,9.038,8.861,8.861,0,0,1,2.527,4.884a20.488,20.488,0,0,0,15.3,8.614,10.269,10.269,0,0,1-.184-1.886c0-4.536,3.308-8.231,7.42-8.231a7.084,7.084,0,0,1,5.422,2.6A13.768,13.768,0,0,0,35.2,3.992a8.112,8.112,0,0,1-3.262,4.536,13.74,13.74,0,0,0,4.273-1.274,17.013,17.013,0,0,1-3.722,4.256Z" transform="translate(0 -3.381)"/></svg>