<svg xmlns="http://www.w3.org/2000/svg" width="45" height="31.5" viewBox="0 0 45 31.5"><defs><style>.a{fill:#707070;}</style></defs><path class="a" d="M6.75,15.75a4.5,4.5,0,1,0-4.5-4.5A4.5,4.5,0,0,0,6.75,15.75Zm31.5,0a4.5,4.5,0,1,0-4.5-4.5A4.5,4.5,0,0,0,38.25,15.75ZM40.5,18H36a4.487,4.487,0,0,0-3.171,1.308A10.285,10.285,0,0,1,38.109,27H42.75A2.248,2.248,0,0,0,45,24.75V22.5A4.5,4.5,0,0,0,40.5,18Zm-18,0a7.875,7.875,0,1,0-7.875-7.875A7.871,7.871,0,0,0,22.5,18Zm5.4,2.25h-.584a10.873,10.873,0,0,1-9.633,0H17.1A8.1,8.1,0,0,0,9,28.35v2.025a3.376,3.376,0,0,0,3.375,3.375h20.25A3.376,3.376,0,0,0,36,30.375V28.35A8.1,8.1,0,0,0,27.9,20.25Zm-15.729-.942A4.487,4.487,0,0,0,9,18H4.5A4.5,4.5,0,0,0,0,22.5v2.25A2.248,2.248,0,0,0,2.25,27H6.884A10.311,10.311,0,0,1,12.171,19.308Z" transform="translate(0 -2.25)"/></svg>