<svg xmlns="http://www.w3.org/2000/svg" width="43.302" height="33.298" viewBox="0 0 43.302 33.298"><defs><style>.a{fill:#707070;}</style></defs><path class="a" d="M4.06,3.375A3.955,3.955,0,0,0,0,7.217a3.955,3.955,0,0,0,4.06,3.842,3.955,3.955,0,0,0,4.06-3.842A3.955,3.955,0,0,0,4.06,3.375Zm0,12.807A3.955,3.955,0,0,0,0,20.024a3.955,3.955,0,0,0,4.06,3.842,3.955,3.955,0,0,0,4.06-3.842,3.955,3.955,0,0,0-4.06-3.842Zm0,12.807a3.848,3.848,0,1,0,0,7.684,3.848,3.848,0,1,0,0-7.684ZM41.948,30.27H14.885a1.318,1.318,0,0,0-1.353,1.281v2.561a1.318,1.318,0,0,0,1.353,1.281H41.948A1.318,1.318,0,0,0,43.3,34.112V31.55A1.318,1.318,0,0,0,41.948,30.27Zm0-25.614H14.885a1.318,1.318,0,0,0-1.353,1.281V8.5a1.318,1.318,0,0,0,1.353,1.281H41.948A1.318,1.318,0,0,0,43.3,8.5V5.936A1.318,1.318,0,0,0,41.948,4.656Zm0,12.807H14.885a1.318,1.318,0,0,0-1.353,1.281V21.3a1.318,1.318,0,0,0,1.353,1.281H41.948A1.318,1.318,0,0,0,43.3,21.3V18.743A1.318,1.318,0,0,0,41.948,17.463Z" transform="translate(0 -3.375)"/></svg>