<svg xmlns="http://www.w3.org/2000/svg" width="25.753" height="20.142" viewBox="0 0 25.753 20.142"><path d="M5.716,8.888,14.242.553A1.954,1.954,0,0,1,15.608,0h8.214a1.91,1.91,0,0,1,1.932,1.888v8.03a1.867,1.867,0,0,1-.566,1.335l-8.526,8.335a1.963,1.963,0,0,1-2.732,0l-8.214-8.03a1.859,1.859,0,0,1,0-2.67Zm15.53-2.594a1.889,1.889,0,1,0-1.932-1.888A1.91,1.91,0,0,0,21.247,6.294ZM.566,11.559l8.214,8.03a1.963,1.963,0,0,0,2.732,0l.014-.014-7-6.847a3.485,3.485,0,0,1,0-5.007L12.418,0H10.458A1.954,1.954,0,0,0,9.092.553L.566,8.888a1.859,1.859,0,0,0,0,2.67Z"/></svg>