<svg xmlns="http://www.w3.org/2000/svg" width="38.852" height="38.342" viewBox="0 0 38.852 38.342"><defs><style>.a{fill:#707070;}</style></defs><path class="a" d="M22.8,3.375A19.3,19.3,0,0,0,3.375,22.546,19.3,19.3,0,0,0,22.8,41.717,19.3,19.3,0,0,0,42.227,22.546,19.3,19.3,0,0,0,22.8,3.375Zm8.452,20.646H24.3v6.867a1.5,1.5,0,0,1-2.55,1.042,1.461,1.461,0,0,1-.439-1.042V24.021H14.349a1.5,1.5,0,0,1-1.055-.433,1.461,1.461,0,0,1-.439-1.042,1.489,1.489,0,0,1,1.494-1.475h6.958V14.2a1.494,1.494,0,0,1,2.989,0v6.867h6.958a1.475,1.475,0,1,1,0,2.949Z" transform="translate(-3.375 -3.375)"/></svg>