<svg xmlns="http://www.w3.org/2000/svg" width="47.791" height="42.343" viewBox="0 0 47.791 42.343"><defs><style>.a{fill:none;stroke:#e90000;stroke-width:2px;}</style></defs><path class="a" d="M10.164,17.8l15.16-16.7A3.282,3.282,0,0,1,27.752,0h14.6a3.621,3.621,0,0,1,3.434,3.782V19.866a3.985,3.985,0,0,1-1.006,2.674l-15.16,16.7a3.216,3.216,0,0,1-4.857,0l-14.6-16.083a4.058,4.058,0,0,1,0-5.349Zm27.613-5.2a3.621,3.621,0,0,0,3.434-3.782,3.45,3.45,0,1,0-6.869,0A3.621,3.621,0,0,0,37.777,12.607ZM1.006,23.152l14.6,16.083a3.216,3.216,0,0,0,4.857,0l.026-.028L8.039,25.492a7.609,7.609,0,0,1,0-10.029L22.08,0H18.594a3.282,3.282,0,0,0-2.428,1.108L1.006,17.8a4.058,4.058,0,0,0,0,5.349Z" transform="translate(1 1)"/></svg>