<svg xmlns="http://www.w3.org/2000/svg" xmlns:xlink="http://www.w3.org/1999/xlink" width="69" height="55" viewBox="0 0 69 55"><defs><style>.a,.c{fill:#e90000;}.a{stroke:#707070;}.b{clip-path:url(#a);}</style><clipPath id="a"><rect class="a" width="69" height="55" transform="translate(102 213)"/></clipPath></defs><g class="b" transform="translate(-102 -213)"><g transform="translate(109 213)"><path class="c" d="M54.083,32.083H51.271L49.5,6.355a.917.917,0,0,0-.917-.854h-5.5a.917.917,0,0,0-.917.854L40.394,32.083H38.5v-5.5a.917.917,0,0,0-1.49-.716l-7.677,6.142V26.584a.917.917,0,0,0-1.489-.716l-7.677,6.142V26.584a.917.917,0,0,0-1.489-.716L11,32.009V26.584A.917.917,0,0,0,9.611,25.8L.444,31.3A.917.917,0,0,0,0,32.083v22A.917.917,0,0,0,.917,55H54.083A.917.917,0,0,0,55,54.083V33A.917.917,0,0,0,54.083,32.083ZM43.939,7.334h3.788l1.707,24.75h-7.2ZM31.166,53.167v-11h5.5v11Zm22,0H38.5V41.25a.917.917,0,0,0-.917-.916H30.25a.917.917,0,0,0-.917.916V53.167H1.833V32.6l7.333-4.4v5.714a.917.917,0,0,0,1.49.716l7.677-6.142v5.425a.917.917,0,0,0,1.489.716L27.5,28.492v5.425a.917.917,0,0,0,1.489.716l7.677-6.142V33a.917.917,0,0,0,.917.917H53.166v19.25Zm0,0"/><path class="c" d="M31.16,1.834a3.4,3.4,0,0,1,.891.689A3.207,3.207,0,0,0,34.1,3.667a3.346,3.346,0,0,0,2.16-1.192,4.294,4.294,0,0,1,.774-.642c.189.008.683.471.949.719a3.07,3.07,0,0,0,1.984,1.114,3.579,3.579,0,0,0,2.3-1.263c.225-.211.565-.531.63-.57.492,0,.6.163.908.6a2.318,2.318,0,0,0,2.026,1.234.917.917,0,0,0,0-1.833c-.184,0-.219-.013-.517-.443A2.709,2.709,0,0,0,42.9,0a2.943,2.943,0,0,0-1.886,1.067c-.3.287-.815.766-1.008.771a3.734,3.734,0,0,1-.772-.622A3.4,3.4,0,0,0,37.033,0a3.178,3.178,0,0,0-2.027,1.133,3.805,3.805,0,0,1-.881.7,3.566,3.566,0,0,1-.825-.651A3.325,3.325,0,0,0,31.166,0a.917.917,0,1,0-.006,1.834Zm0,0"/><path class="c" d="M10.084,42.167H6.416a.917.917,0,0,0-.916.916v5.5a.916.916,0,0,0,.916.917h3.667A.917.917,0,0,0,11,48.583v-5.5A.917.917,0,0,0,10.084,42.167Zm-.917,5.5H7.333V44H9.166Zm0,0"/><path class="c" d="M17.417,42.167H13.75a.917.917,0,0,0-.917.916v5.5a.916.916,0,0,0,.917.917h3.667a.917.917,0,0,0,.916-.917v-5.5A.917.917,0,0,0,17.417,42.167Zm-.917,5.5H14.666V44H16.5Zm0,0"/><path class="c" d="M24.75,42.167H21.083a.917.917,0,0,0-.917.916v5.5a.916.916,0,0,0,.917.917H24.75a.917.917,0,0,0,.916-.917v-5.5A.917.917,0,0,0,24.75,42.167Zm-.917,5.5H22V44h1.833Zm0,0"/></g></g></svg>