<svg xmlns="http://www.w3.org/2000/svg" xmlns:xlink="http://www.w3.org/1999/xlink" width="44" height="38" viewBox="0 0 44 38"><defs><style>.a,.c{fill:#e90000;stroke:#e90000;}.b{clip-path:url(#a);}.c{stroke-width:0.081px;}</style><clipPath id="a"><rect class="a" width="44" height="38"/></clipPath></defs><g class="b"><g transform="translate(2.875 0)"><path class="c" d="M4.223,34.365c2.962.339,5.8,1.35,8.7,1.994,3.068.681,6.169,1.209,9.269,1.725a1.275,1.275,0,0,0,.179.012,1.2,1.2,0,0,0,.317.029,62.482,62.482,0,0,0,7.1-.807,1.108,1.108,0,0,0,.385-.139,5.2,5.2,0,0,0,3.5-2.161,5.217,5.217,0,0,0,.6-3.473,6.057,6.057,0,0,0,2.065-6.127,5.986,5.986,0,0,0,.24-8.529,6.446,6.446,0,0,0-.443-7.628,1.066,1.066,0,0,0-.4-.319,1.136,1.136,0,0,0-.4-.168c-3.687-.791-7.455-.454-10.554,1.839a1.17,1.17,0,0,0-.491.9,1.257,1.257,0,0,0-.078.379c-.006.082-.006.111,0,.1-.007.044-.015.089-.022.133a6.129,6.129,0,0,0-.071.622c-.2-.007-.405-.015-.608-.031,1.414-4.835.826-14.736-6.5-12.176A1.143,1.143,0,0,0,16.239,1.7a1.217,1.217,0,0,0-.059.336,15.483,15.483,0,0,1-2.331,8.319c-2.032,3.094-5.4,2.835-8.733,2.477a19.289,19.289,0,0,0-3.258-.313C.516,12.6.428,13,.065,14.1a1.187,1.187,0,0,0-.065.38C0,20.51.006,26.541.1,32.572.124,34.4,2.978,34.222,4.223,34.365ZM8.014,15.316c7.143.317,10.126-6.184,10.442-12.769,4.383-.711,3.673,7.011,2.758,9.852-.14-.028-.281-.051-.421-.083-1.443-.322-2.057,1.893-.611,2.215a22.245,22.245,0,0,0,9.131.1c1.454-.278.837-2.492-.611-2.215a19.578,19.578,0,0,1-2.276.3q0-.066,0-.054c.007-.045.015-.089.022-.133.014-.1.028-.2.041-.294a10.576,10.576,0,0,1,8.077-1.27c1.307,1.719.831,3.671-.327,5.334a.978.978,0,0,0-.175.821,1,1,0,0,0,.354.858c2.058,1.888,2.034,4.142.072,6.057a1,1,0,0,0-.558,1.287,3.856,3.856,0,0,1-1.291,4.638,1.27,1.27,0,0,0-.13.12,1.12,1.12,0,0,0-.589,1.273,3.163,3.163,0,0,1-.231,2.513,3.436,3.436,0,0,1-2.317,1.147,1.164,1.164,0,0,0-.33.117,56.788,56.788,0,0,1-6.354.7c-.025,0-.046.008-.069.01a110.808,110.808,0,0,1-15.23-3.32,1.315,1.315,0,0,0-.143-.03A87.564,87.564,0,0,0,8.014,15.316Zm-2.3-.119a84.83,84.83,0,0,1-.686,16.664l-2.638-.172C2.31,26.108,2.3,20.527,2.3,14.945A29.491,29.491,0,0,1,5.709,15.2Z" transform="translate(0 -0.126)"/></g></g></svg>