<svg xmlns="http://www.w3.org/2000/svg" xmlns:xlink="http://www.w3.org/1999/xlink" width="45" height="45" viewBox="0 0 45 45"><defs><style>.a,.c{fill:#707070;}.a{stroke:#707070;}.b{clip-path:url(#a);}</style><clipPath id="a"><rect class="a" width="45" height="45" transform="translate(1233 44)"/></clipPath></defs><g class="b" transform="translate(-1233 -44)"><g transform="translate(1233 44)"><path class="c" d="M15.538,0H5.2A5.21,5.21,0,0,0,0,5.2V15.538a5.21,5.21,0,0,0,5.2,5.2H15.538a5.21,5.21,0,0,0,5.2-5.2V5.2A5.21,5.21,0,0,0,15.538,0Zm1.688,15.538a1.69,1.69,0,0,1-1.688,1.688H5.2a1.69,1.69,0,0,1-1.688-1.688V5.2A1.69,1.69,0,0,1,5.2,3.516H15.538A1.69,1.69,0,0,1,17.227,5.2Z"/><path class="c" d="M39.727,0h-10.2a5.279,5.279,0,0,0-5.273,5.273v10.2a5.279,5.279,0,0,0,5.273,5.273h10.2A5.279,5.279,0,0,0,45,15.469V5.273A5.279,5.279,0,0,0,39.727,0Zm1.758,15.469a1.76,1.76,0,0,1-1.758,1.758h-10.2a1.76,1.76,0,0,1-1.758-1.758V5.273a1.76,1.76,0,0,1,1.758-1.758h10.2a1.76,1.76,0,0,1,1.758,1.758Z"/><path class="c" d="M15.538,24.258H5.2a5.21,5.21,0,0,0-5.2,5.2V39.8A5.21,5.21,0,0,0,5.2,45H15.538a5.21,5.21,0,0,0,5.2-5.2V29.462A5.21,5.21,0,0,0,15.538,24.258ZM17.227,39.8a1.69,1.69,0,0,1-1.688,1.688H5.2A1.69,1.69,0,0,1,3.516,39.8V29.462A1.69,1.69,0,0,1,5.2,27.773H15.538a1.69,1.69,0,0,1,1.688,1.688Z"/><path class="c" d="M39.727,24.258h-10.2a5.279,5.279,0,0,0-5.273,5.273v10.2A5.279,5.279,0,0,0,29.531,45h10.2A5.279,5.279,0,0,0,45,39.727v-10.2A5.279,5.279,0,0,0,39.727,24.258Zm1.758,15.469a1.76,1.76,0,0,1-1.758,1.758h-10.2a1.76,1.76,0,0,1-1.758-1.758v-10.2a1.76,1.76,0,0,1,1.758-1.758h10.2a1.76,1.76,0,0,1,1.758,1.758Z"/></g></g></svg>