<svg xmlns="http://www.w3.org/2000/svg" xmlns:xlink="http://www.w3.org/1999/xlink" width="793" height="616" viewBox="0 0 793 616"><defs><style>.a,.q{fill:#fff;}.a{stroke:#707070;}.b{fill:none;}.c{clip-path:url(#a);}.d{clip-path:url(#b);}.e{fill:#ffd59a;}.f{fill:#001a45;}.g{fill:#e6e6e6;}.h{fill:#00102e;}.i{fill:#030202;}.j{fill:#e3e3e3;}.k{fill:#c9c9c9;}.l{fill:#ffc16b;}.m{fill:#00245e;}.n{fill:#382100;}.o{fill:#261700;}.p{fill:#c60022;}.r{fill:#122b42;}.s{fill:#1c4563;}.t{fill:#d1d3d4;}.u{fill:#f1f2f2;}.v{fill:#27aae1;}.w{fill:#ffbf0d;}.x{fill:#ffa90d;}</style><clipPath id="a"><rect class="a" width="793" height="616" transform="translate(224.667 234)"/></clipPath><clipPath id="b"><rect class="b" width="769" height="616" transform="translate(-0.321)"/></clipPath></defs><g class="c" transform="translate(-224.667 -234)"><g transform="translate(236.988 234)"><g class="d" transform="translate(0 0)"><path class="e" d="M484.333,268.712c-3.1-.765-6.523-3.67-10.118-4.249,1.371-8.743-6.856-13.934-.166-18.841,5.034-3.69,8.815-13.228,11.754-12.757,5.27.765,6.053-2.836,16.289,1.472,6.758,2.846,6.366,1.737,5.132,13.905-.676,6.624-1.2,16.584-4.672,24.415C498.065,270.478,489.182,269.566,484.333,268.712Z" transform="translate(114.463 -41.511)"/><path class="f" d="M430.1,467.392l77.378-78.916L524,265.165s.059-.392.157-1.109c-4.016-.353-31.128-4.906-31.128-4.906L460.491,377.063l-80.669,52.49S409.079,470.9,430.1,467.392Z" transform="translate(93.504 -35.276)"/><path class="g" d="M.2.063,10.361.057l-.017,32.96L.18,33.022Z" transform="translate(585.709 225.512) rotate(-73.191)"/><path class="h" d="M327.249,452.209l48.082,8.979-33.576,80.791Z" transform="translate(148.574 146.453)"/><path class="i" d="M485.829,766.754c.206,2.316.578,3.68,1.166,3.925,7.042,2.708,1.694,16.093,3.742,18.174,10.03,10.186,49.855,45.218,57.123,35.415s-28.4-47.279-28.4-47.279l.117-.667C507.965,774.192,496.26,769.982,485.829,766.754Z" transform="translate(117.766 82.072)"/><path class="f" d="M373.974,585.127l-.793,1.109L296.214,762.792l-96.468,45.974c5.5,6.153,5.769,8.312,11.117,14.327L334.6,793.929l104.392-141.17,112.129,20.882S551.64,796.3,548.653,816.8c1.42,7.458,29,13.513,40.05,2.178l21.205-192.188s-182.465-60.635-181.466-61.557C408.52,566.9,422.683,555.836,373.974,585.127Z" transform="translate(52.288 35.32)"/><path class="h" d="M543.515,645.161C534.876,649.311,497.324,657,488,656.995c-3.5.324-7.052-1.963-10.911-2.836-17.954-4.789-34.33-6.742-51.442-11.118-12.4-2.738-29.776-22.815-91.463-44.718,1.332,5.574,44.38,80.467,50.658,79.034l23.38-32.383,113.168,21.589s-2.116,30.42-1.587,33.747C529.372,696.178,523.681,654.7,543.515,645.161Z" transform="translate(83.058 43.134)"/><path class="h" d="M300.8,755.507l12.439-2.836c-13.35-1.158-12.351-6.486-24.81-10.657C296.181,749.707,292.567,751.954,300.8,755.507Z" transform="translate(72.587 76.352)"/><path class="i" d="M204.408,763.909s2.733,5.476-14.917,24.13c-22.8,26.574-.245,30.2-.245,30.2l27.621-40.008.578-.314c-4.192-4.73-7.953-9.813-12.273-14.612Z" transform="translate(47.607 81.276)"/><path class="h" d="M394.767,565.772s3.34,49.624,3.115,50.586-2.938,36.455-2.938,36.455-40.932-20.078-45.183-31.657-5.044-20.019-3.8-20.136,20.706-.716,23.233-.638S393.366,570.953,394.767,565.772Z" transform="translate(85.631 35.609)"/><path class="j" d="M362.224,400.912l-40.912,10.323c24.761,28.32,32.861,74.118,43.341,110.661,5.71,20.754,9.7,41.087,13.869,62.2,3.673,16.829,14.447,17.968,14.447,17.968l50.257,8.773c3.683-3.7,12.958-37.083,5.015-54.4,0,0-9.07-9.5-2.733-60.654.784-6.29-3.056-7.752-2.664-14.141C412.764,397.458,411.138,408.2,362.224,400.912Z" transform="translate(80.112 -2.504)"/><path class="k" d="M325.5,413.443l55.046,29.949-.548-15.21s34.4,86.443,34.7,85.933-23.429-83.509-23.429-83.509l.705-5.152,9.589,1.776.607-24.326-6.229-3.817-11.44,18.2s-12.909,7.2-13.585,7.3S325.5,413.443,325.5,413.443Z" transform="translate(81.07 -2.926)"/><path class="l" d="M350.648,372.736l-17.5,5.054s-8.815,27.663-10.774,33.364,65.791,10.991,65.791,10.991-.216-3.709,7.356-12.983c0,0-7.787-9.99-7.375-11.687C390.6,387.152,350.648,372.736,350.648,372.736Z" transform="translate(80.345 -9.017)"/><path class="f" d="M401.166,491.441c-7.258-40.233-31.921-65.1-81.3-87.787l-27.053,28.791S340.938,564.2,342.27,586.725c2.047,34.807-7.356,41.921-7.356,41.921,8.267,26.161,48.689,55.081,66.3,50.046C402.047,666.623,415.681,572.32,401.166,491.441Z" transform="translate(73.59 -1.87)"/><path class="h" d="M340.818,434.987c-1.4,6.575-1.606,13.218-6.523,18.645,8.325-2.787,20.735-.412,22.861,6.869,1.391,4.171-9.3,10.794-9.119,11.57,18.767,25.71,36.74,53.55,49.884,83.322-.578-24.709-2.409-49.32-6.3-70.929-3.634-20.156-11.636-36.446-24.908-50.547C358.537,437.224,349.114,437.892,340.818,434.987Z" transform="translate(83.084 5.127)"/><path class="m" d="M315.3,403.407l-3.183,7.409c29.8,21.078,20.843,42.019,20.843,42.019l28.64,4.475-15.387,15.318s43.684,33.688,56.476,83.244c0,0-2.566-44.895-6.131-64.678C389.305,450.951,364.642,426.094,315.3,403.407Z" transform="translate(78.007 -1.927)"/><path class="f" d="M384.259,399.318l-4.437,9.548c27.425,46.023,48.092,119.5,49.15,176.418,24.075-63.186-4.31-176.085-4.31-176.085Z" transform="translate(93.504 -2.872)"/><path class="h" d="M430.227,481.569c.744-6.329-4.584-23.953-4.584-23.953s-3.477-3.68-10.373-9.705c6.974-4.789,3.007-8.214,8.933-14.337-5,1.276-14.261-8.635-18.492-11.118-7.659,4.73-1.832,10.951-9.716,15.819,17.924,34.051,31.137,52.558,26.573,101.349C427.092,529.221,427.3,500.145,430.227,481.569Z" transform="translate(97.205 2.477)"/><path class="m" d="M427.738,533.727c3.918-29.616-.2-48.231,8.355-76.541-7.836,1.884-17.229-4.759-23.429-9.911,7.767-4.691,7.415-7.222,13.781-13.738-17.836-2.865-35.76-18.645-42.186-34.346l-4.437,9.548c25.26,42.431,37.014,87.787,46.456,138.363C425.426,542.666,427.561,538.074,427.738,533.727Z" transform="translate(93.504 -2.902)"/><path class="e" d="M319.988,341.631s3.918-20.215,23.39-25,25.407-1.963,31.01,11.3,6.856,23.708,14.819,21.373,11.421-6.869,11.421-6.869,6.5,10.078,1.048,18.959c-3.291,5.358-9.364,9.744-9.364,9.744s8.472,11.383,16.876,14.6c6.5,2.492.725,19.685-28.277,25.955-21.6,4.671-32.322-2.895-34.066-6.526-2.527-5.309-2.605-6.742-3.918-10.912S319.988,341.631,319.988,341.631Z" transform="translate(79.809 -22.492)"/><path class="n" d="M330.84,350.327s21.979,20.313,20.422,30.42-3.83,25.4-3.83,25.4-.568,7.929-23.831-11.069c-23.889-19.528-24.555-16.888-24.183-24.709s3.4-11.776,3.4-11.776-10.568-6.987-8.982-15.289S314.3,315.667,335.6,305.815s42.95-11.55,47.622.186C387.061,315.638,374.2,343.222,330.84,350.327Z" transform="translate(73.786 -26.34)"/><path class="o" d="M371.777,298.476c4.672,10.569-31.735,10.539-53.156,25.946-9.1,6.555-15.26,15.249-15.427,24.248s12.9,4.524,12.9,4.524-9.276,3.847-12.106,6.31,4.231,16.368,8.355,22.168c3.575,5.044,16.191,23.051,33.214,22.276.676-4.514,2.321-15.475,3.526-23.335,1.557-10.127-20.422-30.42-20.422-30.42,43.361-7.1,56.221-34.689,52.382-44.355C379.525,302.028,376.263,299.634,371.777,298.476Z" transform="translate(75.965 -26.185)"/><path class="e" d="M346.349,363.595a15.425,15.425,0,1,1-21.225-4.975A15.463,15.463,0,0,1,346.349,363.595Z" transform="translate(79.316 -12.819)"/><path class="l" d="M339.939,378.6s-5.622,1.4-5.416-4.74c.1-3.111,4.251-4.583,4.251-4.583s-6.22-4.534-9.168-.667a6.535,6.535,0,0,0-.392,7.536s-5.671-5.142-.353-9.931,11.3,3.386,11.3,3.386-6.641,2.659-3.213,6.987A4.76,4.76,0,0,0,339.939,378.6Z" transform="translate(81.319 -10.873)"/><path class="l" d="M379.928,362.161s-5.955,1.639-6.533-2.826a18.774,18.774,0,0,1,0-4.906S368.85,366.822,379.928,362.161Z" transform="translate(91.821 -13.25)"/><path class="f" d="M154.929,384.444l19.658-19.734,86.556,68.122,65.076,6.624c.088-.343,19.354,61.822,19.354,61.822L229,464.489Z" transform="translate(42.03 -10.873)"/><path class="h" d="M322.782,515.81c-.059-.628-7.346-35.327-7.346-35.327l3.791-20.3-9.178,19.067Z" transform="translate(77.534 11.198)"/><path class="j" d="M404.836,508.392l-1.6-47.789s15.544,35.523,18.414,48.084,8.649,31.4,10.206,38.977.842,23.934-2,29.822-12.831,3.552-12.831,3.552l-10.617-52.186S404.464,508.843,404.836,508.392Z" transform="translate(98.863 11.296)"/><path class="k" d="M397.2,443.243l25.26,74.343c1.166,3.464,9.422,28.536,9.422,28.536s-11.137-44.355-13.957-49.762S397.2,443.243,397.2,443.243Z" transform="translate(97.481 7.283)"/><path class="p" d="M362.805,419.538l15.221,1.688s26.2,136.97,81.247,146.439c12.351-2.434,17.033-6.241,17.033-6.241l-5.583-14.612s-32.009-1.158-49.835-29.733c-24.869-39.89-38.924-98.219-38.924-98.219l5.544-11.373-13.83,1.109Z" transform="translate(89.609 -0.983)"/><path class="j" d="M267.9,287.187l64.978,11.619,5.328-12.963,6.572,3.248.137,23.777-11.793-12.649-14.467,20.372-53.2-24.631Z" transform="translate(134.431 107.992)"/><path class="q" d="M382.846,409.726l-42.509-2.443c4.339,7.635,6.269,7.85,9.9,15.632l18.365,8.6,14.486-20.362,11.754,12.659.147-19.469c-.147-1.109-5.465-5.26-5.465-5.26Z" transform="translate(84.466 -2.927)"/><path class="e" d="M164.557,378.876c-1.959,2.345-5.877,4.112-7.836,6.977-3.693-2.286-10.627-9.931-16.72-15-6.964-5.8,2.938-18.35,10.911-21.883s2.821,4.906,9.863,2.12c5.877-2.326,11.852,12.433,13.252,17.045a53.548,53.548,0,0,0-9.471,10.745Z" transform="translate(38.074 -14.716)"/><path class="g" d="M116.6,249.777,96.6,271.1l7.424,6.889,19.991-21.314Z" transform="translate(95.784 99.655)"/><path class="b" d="M89.532,317.358" transform="translate(27.062 -21.82)"/><path class="r" d="M97.7,325.75a3.384,3.384,0,0,1-4.79,0L88.7,321.393a3.4,3.4,0,0,1,0-4.789h0a3.375,3.375,0,0,1,4.79,0l4.212,4.357a3.4,3.4,0,0,1,0,4.789Z" transform="translate(26.647 -22.224)"/><path class="s" d="M99.757,327.677h0a26.513,26.513,0,1,1,7.748-18.645A26.409,26.409,0,0,1,99.757,327.677Z" transform="translate(19.07 -29.891)"/><path class="q" d="M65.88,293.735A19.7,19.7,0,1,0,93.717,321.6h0a19.7,19.7,0,1,0-27.837-27.87Z" transform="translate(20.331 -28.617)"/><path class="r" d="M124.251,352.321h0a6.759,6.759,0,0,1-9.569,0L94.044,331.547a6.78,6.78,0,0,1,0-9.568h0a6.759,6.759,0,0,1,9.569,0l20.637,20.774a6.8,6.8,0,0,1,0,9.578Z" transform="translate(27.643 -21.21)"/><rect class="t" width="83.402" height="58.427" rx="4.416" transform="translate(332.929 118.953)"/><path class="u" d="M294.194,198.038l-28.316,25.3a5.417,5.417,0,0,0,5.064,3.513H343.49a5.407,5.407,0,0,0,5.054-3.513l-28.63-25.583" transform="translate(67.424 -49.47)"/><path class="t" d="M265.877,177.795l41.334,40.479,41.353-40.479a5.467,5.467,0,0,0-5.054-3.857H270.941A5.467,5.467,0,0,0,265.877,177.795Z" transform="translate(67.424 -54.975)"/><path class="u" d="M265.877,177.451l41.334,36.926,41.353-36.926a5.407,5.407,0,0,0-5.054-3.513H270.941a5.417,5.417,0,0,0-5.064,3.513Z" transform="translate(67.424 -54.975)"/><path class="s" d="M187.992,274.418h-4.584a32.847,32.847,0,0,0-1.332-4.71l3.83-2.208a1.965,1.965,0,0,0,.715-2.64l-3.849-6.663a1.957,1.957,0,0,0-2.615-.7l-3.986,2.267a31.8,31.8,0,0,0-3.487-3.405l2.214-3.837a1.965,1.965,0,0,0-.705-2.64l-6.621-3.857a1.957,1.957,0,0,0-2.625.707l-2.272,4.023a31.673,31.673,0,0,0-4.721-1.2v-4.445a1.961,1.961,0,0,0-1.959-1.963h-7.679a1.961,1.961,0,0,0-1.959,1.963v4.6a31.655,31.655,0,0,0-4.692,1.325l-2.2-3.837a1.957,1.957,0,0,0-2.635-.707l-6.651,3.847a1.965,1.965,0,0,0-.7,2.63l2.292,3.994a30.733,30.733,0,0,0-3.379,3.484l-3.84-2.218a1.957,1.957,0,0,0-2.625.707l-3.84,6.712a1.965,1.965,0,0,0,.705,2.63l3.977,2.3a31.832,31.832,0,0,0-1.195,4.73h-4.427a1.961,1.961,0,0,0-1.959,1.963v7.684a1.961,1.961,0,0,0,1.959,1.963h4.594a30.141,30.141,0,0,0,1.313,4.71l-3.83,2.218a1.965,1.965,0,0,0-.705,2.63l3.84,6.653a1.957,1.957,0,0,0,2.625.716l3.986-2.306a30.091,30.091,0,0,0,3.487,3.405l-2.223,3.847a1.965,1.965,0,0,0,.705,2.63l6.66,3.847a1.957,1.957,0,0,0,2.615-.707l2.3-3.984a30.242,30.242,0,0,0,4.721,1.2v4.445a1.961,1.961,0,0,0,1.91,1.963h7.65a1.961,1.961,0,0,0,1.959-1.963v-4.592a32.891,32.891,0,0,0,4.692-1.325l2.214,3.827a1.9,1.9,0,0,0,2.625.707l6.651-3.847a1.965,1.965,0,0,0,.705-2.63l-2.3-3.984a31.78,31.78,0,0,0,3.4-3.493l3.84,2.218a1.957,1.957,0,0,0,2.625-.707l3.84-6.663a1.965,1.965,0,0,0-.7-2.62l-3.986-2.306a30.673,30.673,0,0,0,1.195-4.73h4.437a1.961,1.961,0,0,0,1.959-1.963v-7.7a1.961,1.961,0,0,0-1.959-1.992Zm-35.418,21.589a15.334,15.334,0,1,0,0-.039Z" transform="translate(32.935 -38.974)"/><path class="r" d="M150.124,253.834A24.317,24.317,0,1,0,174.4,278.15a24.294,24.294,0,0,0-24.271-24.317Zm0,44.276a19.9,19.9,0,1,1,.01,0Z" transform="translate(35.375 -36.505)"/><path class="r" d="M145.728,253.838h-.666V258.2h.676a19.97,19.97,0,0,1,0,39.929h-.676v4.318h.666a24.314,24.314,0,0,0,0-48.628Z" transform="translate(39.772 -36.51)"/><path class="v" d="M397.6,153.415a40.175,40.175,0,1,0,40.1,40.174,40.137,40.137,0,0,0-40.1-40.174Z" transform="translate(88.394 -59.72)"/><path class="q" d="M422.621,194.916c-.529,0-1.215.265-1.224.442s-.744.51-.979.608a3.121,3.121,0,0,0-.8,1.089c-.108.245-.7.167-.921.275s-.666.461-.666.677-.127.2-.274-.059l-.294.314-.343.373a3.218,3.218,0,0,1-1.068,1.472c-.225.059-.264,1.138-.264,1.58a2.073,2.073,0,0,0,.372,1.2l.049.343.078.7a1.218,1.218,0,0,0,.4,1.1,5.556,5.556,0,0,0,1.489-.275,2.125,2.125,0,0,0,.539-.216,39.812,39.812,0,0,0,4.124-9.6Z" transform="translate(101.735 -50.125)"/><path class="q" d="M369.642,203.4c-.059.108.656.844.979,1.1a7.109,7.109,0,0,1,.979,1.855,3.085,3.085,0,0,1,0,1.2,4.4,4.4,0,0,0,.157.618,10.277,10.277,0,0,0-.137,1.8c.1.481-.558,1.963-.539,2.7s.343,1.7.48,1.629.176.667-.049.756-.48.677-.362.707,0,.608,0,.844.225,1.757.264,2.139a10.6,10.6,0,0,0,.705,1.629c.108.314.225.913.274.981a2.02,2.02,0,0,0,.1.186,3.259,3.259,0,0,1,.578.265,3.47,3.47,0,0,0,1.264,0c.284,0,0-.314-.1-.451s-.245-.814-.382-.883a1.553,1.553,0,0,1-.088-1.128c.127-.186.646-.5.705-.658s.069-.913-.069-.981,0-.981-.069-1.472.793-.864.842-1.217.979-.756,1.234-.932a2.26,2.26,0,0,0,.3-1.433c-.108-.226.353-.4.568-.4a2.808,2.808,0,0,0,.509-.147c.078,0,.323-.461.451-.559s.411-1.2.646-1.374a1.9,1.9,0,0,0,.441-1.03,2.946,2.946,0,0,1,.49-.981,4.893,4.893,0,0,1,1.175-.648,7.3,7.3,0,0,0,.47-2.041,13.32,13.32,0,0,1,.353-1.384c0-.177.3-.324.353-.373a9.105,9.105,0,0,1,.411-.873,4.3,4.3,0,0,0,.646-.922,6.237,6.237,0,0,1,.167-.8v-.922c-.157-.432-.646-.981-.764-.864s-.686-.383-.979-.491a5.243,5.243,0,0,0-1.166-.2c-.186,0-.8-.51-1.077-.6a9.43,9.43,0,0,1-1.126-.3c-.127-.078-.294-1.138-.872-1.482a5.979,5.979,0,0,1-1.675-1.452,5.73,5.73,0,0,0-1.547-1.1,1.35,1.35,0,0,0-.911-.157c-.069.059-.49-.579-.715-.756s-.872-.334-.9-.167-.47.069-.568-.069-.441.059-.6.108-.705.893-.979,1.089-.558-.186-.715-.255a1.79,1.79,0,0,0-.979.245c-.176.128-.568-.883-.48-1.344s-.411-1.384-.8-1.4-.509-.981-.431-1.354-.705-.579-.9-.6-.686.471-.764.716-1.861-.324-1.655-1.393a4.909,4.909,0,0,1,1.264-2.306,3.245,3.245,0,0,1,1.6,0,.42.42,0,0,0,.529-.069,3.383,3.383,0,0,1,1.244.128c.284.118.676,1.187.979,1.325s.4-.7.441-.893a2.074,2.074,0,0,0-.206-.864,2.945,2.945,0,0,1,.9-1.668,2.021,2.021,0,0,0,.852-1.079c0-.128.353-.226.451-.285s0-1.109.157-1.335a4.985,4.985,0,0,1,1.244-.824.982.982,0,0,0,.362-.893c-.1-.118.666-.765,1.068-.893s.735.226.637.285a5.214,5.214,0,0,0,.862-.481c.235-.157,0-.677-.176-.824s-.069-.716.137-.765.4-.55.343-.657.872.088,1.224-.177.1.638-.157.981a.4.4,0,0,0,.353.628c.166-.069.343.2.382.294s.382-.108.617,0,.372-.324.392-.52-.558-.6-.646-.834a14.29,14.29,0,0,1-.137-1.874c0-.275-.392-.726-.509-.648s-.372-.726-.558-.9a.982.982,0,0,1-.235-.687c0-.128-.656-.824-.823-1.148s-.382-.255-.392-.108-.48.167-.666.147-.353-.756-.353-.981-.852-.324-.98-.55-.7-.118-.793-.275a.861.861,0,0,0-.676-.236c-.1.049-.059,2.051-.147,2.591a1.3,1.3,0,0,1-.725.981c-.166,0-.059.383.049.353s-.323.579-.382.981-.47,0-.539-.383-.47-.873-.548-.746-.353-.157-.48-.079-.882-.442-1.195-.618-.48-1.109-.656-1.2,0-.2,0-.343.6-.7.784-.913a11.21,11.21,0,0,1,1.107-1.276,1.119,1.119,0,0,0,.421-.775,7.229,7.229,0,0,1,1.45-.559c.313-.108.588-.981.637-1.246a1.071,1.071,0,0,0-.353-.8c-.147-.059.441-.088.637,0s.8-.177,1.048-.049.715.412,1.068.638l-.078.648-.137,1.1c-.931.383-1.195,1.05-.872,1.03a7.6,7.6,0,0,1,2.214.981c.411.294.549-.432.676-.677a1.858,1.858,0,0,0,0-1.089c-.1-.137.48-.088.646.069s.353-.167.48-.216.186-.667.255-.785-.274-.255-.284-.4-.676-.442-.891-.54-.264-.569-.157-.648-.069-.657-.186-.854-.793-.343-.979-.343-.46-.54-.6-.618a3.355,3.355,0,0,0-1.234-.108c-.225.059-.627-.628-.979-.422s-.754-.245-.921-.343-1.038.844-.979,1.5a1.886,1.886,0,0,0,.47,1.315c.147,0,0,.608-.176.775s-.519-.177-.382-.324-.372-.834-.548-1.119a2.223,2.223,0,0,0-.882-.5c-.186.2-.353.393-.529.589a1.552,1.552,0,0,1,.069.785c-.127.4-.46.461-.49.285s-.176-.128-.372-.157a40.1,40.1,0,0,0-9.021,21,2.639,2.639,0,0,1,.48.677c.108.353.715.579.833.657s.157-.677.069-.873.147-.314.147-.167a5.984,5.984,0,0,0,.764,1.04c.2.236.392,1.766.578,2.09a7.135,7.135,0,0,0,2.517,1.128,3.056,3.056,0,0,1,1.391.981c.118.177.872.275.979.343s.549.589.715.7a.893.893,0,0,1,.284.491c0,.088.979.461,1.244.726a.528.528,0,0,0,.715.078c.078-.108.274.54.372.756a1.455,1.455,0,0,1,.049.854,11.424,11.424,0,0,1-.392,1.3,5.425,5.425,0,0,0-.451,1.963,2.315,2.315,0,0,0,.754.981.236.236,0,0,1,0,.422c-.167,0-.088,1.413.284,1.619A1.442,1.442,0,0,1,369.642,203.4Z" transform="translate(88.463 -57.575)"/><path class="q" d="M371.3,175.875Z" transform="translate(91.554 -54.527)"/><path class="q" d="M369.349,163.151c.48-.079,1.283-.216,1.332-.353a.777.777,0,0,0-.049-.55h.235c.186,0,.49-.981.676-1.236a7.754,7.754,0,0,0,2.605-1.511c.225-.069.539-.579.49-.687s.744-.579,1.048-.707.451-.481.343-.5a36.5,36.5,0,0,0-3.281,1.737,40.17,40.17,0,0,0-4.9,3.925A9.289,9.289,0,0,0,369.349,163.151Z" transform="translate(90.764 -58.751)"/><path class="q" d="M395.226,212.451a13.486,13.486,0,0,0,1.675-1.864,4.548,4.548,0,0,0,.558-1.462,1.4,1.4,0,0,1,.656-.608c.157,0,.676-2.208,1.136-2.689a7.941,7.941,0,0,0,.979-3.582,11.737,11.737,0,0,1,.4-2.767,3.61,3.61,0,0,1,.862-1.187,25.6,25.6,0,0,0,1.636-2.365,5.19,5.19,0,0,0,.627-2.169c-.069-.3-.833-.51-.98-.363a2.66,2.66,0,0,1-1.1.265c-.235,0-.764-1.236-1.087-1.492s-.627-1.678-.813-1.963a8.917,8.917,0,0,0-.882-1.109c-.157-.128-.2-.9-.235-1.109s.313.128.382.432a13.542,13.542,0,0,0,1.175,1.963,21.09,21.09,0,0,1,1.126,2.11c.147.4,1.724.206,2.223,0a3.23,3.23,0,0,0,1.146-.775c0-.147.823-.51,1.038-.687s.421-1.109.568-1.256-.118-1.04-.284-1.305a1.418,1.418,0,0,0-1.126-.363c-.167.1-.509-.6-.637-.854s-.735-.569-.793-.746.157-.451.255-.51a5.044,5.044,0,0,1,1.557,1.119,9.465,9.465,0,0,1,.754,1.246,1.6,1.6,0,0,0,1.146,0,.323.323,0,0,1,.509.078l.274-.049.979-.147a1.963,1.963,0,0,1,.588,1.03.922.922,0,0,0,.47.55c.186.049.323.687.382.844s.617,1.119.735,1.521a9.821,9.821,0,0,0,.7,1.4,3.144,3.144,0,0,1,.206.981.725.725,0,0,0,.588.471c.216,0,.666-1.413.774-1.963a1.433,1.433,0,0,1,.558-.981c.108,0,.186-.294.186-.412s.568-.1.617-.236.215-1.07.421-1.207a7.679,7.679,0,0,1,1.166-.707c.255-.088.891.471,1.038.726a2.171,2.171,0,0,1,.215.981c-.049.108.343.677.686.667s.451.432.46.589.46.628.549.834a1.8,1.8,0,0,1,0,.883,3.086,3.086,0,0,0,0,1.07,10.023,10.023,0,0,0,1.518,1.6c.392.324.578-.657.372-.981s-.891-.981-1.048-1.227a2.577,2.577,0,0,1-.088-1.217c.059-.245.6.128.823.3a1.766,1.766,0,0,1,.529.687c0,.128,1.42-.667,1.469-1.521a9.106,9.106,0,0,1,.558-2.051c.049-.236-.137-.54-.255-.55s.206-.657.607-.648,1.352-1.05,1.577-1.472a3.286,3.286,0,0,1,.725-.824,6.542,6.542,0,0,0,.421-1.452,4.018,4.018,0,0,0-.725-2.129,1.731,1.731,0,0,1-.117-.834c0-.108.411-.226.451-.324s.441-.53.411-.726.255.255.441.412.392,1.178.617,1.3,1.175-1.089,1.048-1.864a2.427,2.427,0,0,1,.5-1.845,4.758,4.758,0,0,0,.911-1.148,40.244,40.244,0,0,0-9.873-15.593.842.842,0,0,1-.157,0l-.343-.079c-.578-.118-.911-.736-.813-.883s0-.147,0-.265c-.323-.294-.646-.579-.979-.854h-.764a3,3,0,0,1-1.234-.393c-.127-.137-.578.118-.607.373s-.813.363-.891.55a.421.421,0,0,1-.558.1c-.078-.108-.8.255-1.166.3a6.463,6.463,0,0,0-1.2.422,2.077,2.077,0,0,0-.607.6c-.059.157-.529.422-.676.481s-.117.736.078.834-.362-.079-.6-.206-.519.285-.6.432-.294-.088-.284-.285-.6-.373-.686-.206-.5-.059-.676-.147-.931.7-1.2.981a3.365,3.365,0,0,1-1.871.393c-.255-.108-.5.6-.284.638a6.161,6.161,0,0,1-.979,0,6.672,6.672,0,0,0-1.91.736.313.313,0,0,1-.519-.216c0-.157-.47-.314-.607-.363s-.4.913-.637,1.089-.529-.746-1.1-.893a18.422,18.422,0,0,1-1.695-.765,3.173,3.173,0,0,1-.891-.746,2.523,2.523,0,0,0-1.1-.275,3.464,3.464,0,0,0-1.185.6c-.206.167-.5.128-.6.2s-.979.883-1.273,1.148a10.1,10.1,0,0,0-1.087,1.639.783.783,0,0,1-.568.324c-.108,0-.2.3-.2.412s-.979.618-1.068,1.06a9.741,9.741,0,0,0,.088,1.806c0,.363.362,1.07.627,1.079s.137.608.059.775.176.353.167.5-.686.343-.891.422a1.58,1.58,0,0,0-.588.716c0,.157-.686.265-.9.471a4.287,4.287,0,0,1,.186-.471.8.8,0,0,0-.147-.726c-.108-.088-.147-1.256-.313-1.5a5.8,5.8,0,0,0-.676-.765c-.1-.079.069-.383.127-.52s-.539-.2-.705-.108-.255,1.256-.323,1.57a.982.982,0,0,0,.4.824c.088,0,.069.6-.147.618s-.4.844-.294,1.04-.157.559-.274.648.8,0,1.234,0,.764.186.725.216-.823.157-.979.334-.666.54-.764.687.176.451.392.432.48.775.646.913.108.559,0,.667-1.126-.078-1.518,0-.9.981-.93,1.256a7.855,7.855,0,0,0,.108,1.482c0,.255.881.412,1.048.54s.979,0,1.136.079.7-.8.8-1.217.979-1.168,1.126-1.452,1.1-.245,1.322-.393.1.7.206,1.158.979.4.852,0,.088-.618.117-.461.882.5,1.038.736.118.765-.069.756-.2.569,0,.638.46-.648.676-.756.382-.549.284-.579.176-.432.3-.3a5.2,5.2,0,0,0-.813-1.217c-.353-.363-.108-.206.558.353l.47.648c.088.118.206.471.284.6l.108.2a4.522,4.522,0,0,1,.167.981.725.725,0,0,0,.588.481c.216,0,.382.108.343.118s.137.432.362.451.313-.559.088-.569-.186-.834-.216-1.187a.715.715,0,0,1,.235-.648,3.9,3.9,0,0,1,0,.9,2.231,2.231,0,0,0,.2.736l.225.167.509.393c.725-.216,1.7-.049,1.665.1s.539.186.568-.049.069,0,.069.167-.48.814-.558,1.119-1.763.088-2.478,0a2.784,2.784,0,0,0-1.871.4c-.078.216-1.2-.491-1.724-.707s-.921-.981-1.028-1.109.088-.363,0-.52a2.808,2.808,0,0,0-1.567-.059c-.343.128-2.106.314-2.527.5a2.308,2.308,0,0,1-1.244-.049c-.2,0-.666.54-.9.648a3.193,3.193,0,0,0-.666,1.825l-.323.618-.206.4a9.112,9.112,0,0,0-1.254,2.336,14.5,14.5,0,0,0-.343,3.15,9.915,9.915,0,0,0,.8,2.659,6.382,6.382,0,0,0,1.626,1.58,5.769,5.769,0,0,0,1.959.245,1.2,1.2,0,0,0,.979-.814l.568.059h.255c0,.314.852.569,1.058.687a1.779,1.779,0,0,0,.911,0c.167,0,.343,1.433.225,1.864a8.513,8.513,0,0,0,.411,2.365c.118.451.627,1.678.686,2.129a21.082,21.082,0,0,1-.362,2.424,9.827,9.827,0,0,0,.833,2.453,8.516,8.516,0,0,1,.323,1.806c0,.245.764,1.737.979,2.345S394.717,212.755,395.226,212.451Z" transform="translate(93.889 -58.043)"/><path class="q" d="M419.724,188.283c.049.1.529-.285.823-.324s.47-.824.235-.883-.509-.657-.676-.726-.48.255-.46.491-.529.334-.627.53-.1.334,0,.314A2.112,2.112,0,0,1,419.724,188.283Z" transform="translate(102.458 -52.108)"/><path class="q" d="M419.336,191.5c.147-.049,0-.814-.313-.883s-1.126.981-.979,1.629.333.579.411.451.588.088.735.137.137-.108,0-.334A1.17,1.17,0,0,1,419.336,191.5Z" transform="translate(102.248 -51.119)"/><path class="q" d="M418.3,191.118a9.724,9.724,0,0,1,.137-1.305c.049-.177-.47-.657-.725-.746s-1.058,1.668-1.636,1.963a1.65,1.65,0,0,0-.647,1.629c.157.245,1.371.373,1.577.559s.451,0,.578-.059.088-.108,0-.147.421-.52.49-.844S418.262,191.392,418.3,191.118Z" transform="translate(101.648 -51.479)"/><path class="q" d="M415.277,193.117a.978.978,0,0,0-1.038.275,11.709,11.709,0,0,0,2.351.628c.6.167.98.206.823.108S415.727,193.293,415.277,193.117Z" transform="translate(101.381 -50.553)"/><path class="q" d="M418.126,183.8c.147-.2-.2-1.138-.372-.981s-.049.765,0,.981S417.989,184.008,418.126,183.8Z" transform="translate(102.165 -52.926)"/><path class="q" d="M419.066,185.37c.108-.245-.127-.51-.509-.6s-.333,1.089-.157,1.246S418.968,185.615,419.066,185.37Z" transform="translate(102.303 -52.472)"/><path class="q" d="M420.567,191.26c.46.324,1.5.177,1.528-.451C421.635,190.465,420.528,190.553,420.567,191.26Z" transform="translate(102.829 -51.12)"/><path class="q" d="M420.441,179.739a.649.649,0,0,0-.235.618h-.078c-.157,0-.176.608,0,.716s.548-.481.754-.618a1.135,1.135,0,0,1,.686-.177,1.868,1.868,0,0,0,.793-.245.687.687,0,0,0,.235-.275c-.1-.442-.206-.883-.313-1.325-.186.137-.411.294-.509.383S420.7,179.543,420.441,179.739Z" transform="translate(102.7 -53.936)"/><path class="q" d="M411.736,189.513Z" transform="translate(100.808 -51.375)"/><path class="q" d="M414.625,192.254a4.835,4.835,0,0,0-1.234-1.433l-.2-.324-.215-.353c-.186-.383-.764-.677-.813-.795s-.235.334-.431.206l.627.442c.539.383,1.577,3,1.812,3.189S414.792,192.636,414.625,192.254Z" transform="translate(100.808 -51.417)"/><path class="q" d="M407.347,188.33c-.137.294.774.922.842.775a1.7,1.7,0,0,0-.284-1.03C407.748,187.918,407.493,188.036,407.347,188.33Z" transform="translate(99.8 -51.723)"/><path class="q" d="M397.533,200.617c0,.314.656.559.842.51a3.417,3.417,0,0,0,.764-1.256,6.63,6.63,0,0,0,.127-.981.983.983,0,0,1,.157-.491,1.581,1.581,0,0,0,.255-.707,20.777,20.777,0,0,0-.392-2.3c0-.285-.333.157-.421.442s-.9.893-1.087,1.148a2.566,2.566,0,0,0-.313,1.236,1.868,1.868,0,0,1-.147.873,7.6,7.6,0,0,0,.215,1.521Z" transform="translate(97.508 -50.036)"/><path class="q" d="M373.43,208.973h.548C374.076,208.375,373.4,208.483,373.43,208.973Z" transform="translate(92.041 -46.97)"/><path class="q" d="M388.49,158.756a1.77,1.77,0,0,1-.931-.206,2.356,2.356,0,0,0-1.254-.1c-.264.108-.088-.628.274-.707s.059-.589-.333-.6-1.322-.137-1.548-.088-.656-.157-.813-.177a17.433,17.433,0,0,1-1.832.314,12.71,12.71,0,0,0-2.145.108c-.284.079-.5.638-.451.834s-1.283.2-1.695.206a13.251,13.251,0,0,0-3.2.795c-.578.314-1.028,1.129-.833,1.148s-.323.471-.637.579-1.048.157-1.224.334.186.294.255.412.274-.108.47,0,.842.157.979.226-.548.206-.882.226-.264.687,0,.785.979.186,1.058.069.842.128,1.2.167.607.913.715,1.1a2.694,2.694,0,0,1,.1,1.04c0,.2.617.55.735.422s.078.3-.176.275-.088.716.225.824.1.559-.078.7-.088.569-.274.726.656,1.619.656,2.375.46,1.364.637,1.364.8.157.882.314.382-.108.5-.236a5.114,5.114,0,0,0,.558-.8q.386-.964.676-1.963c.049-.167.764-.059.921-.147a7.206,7.206,0,0,0,.764-.55c.127-.118,1.136-.54,1.41-.736s.735-1.06.98-1.246-.108-.128-.382-.3a.285.285,0,0,1-.069-.471,2.934,2.934,0,0,1,1.175.245c.284.108.813-.285.607-.432s-.1-.147,0-.079.206-.5.1-.608.823-.785.666-1.433.255-1.3.5-1.305.176-.726-.127-.795,0-.137.1-.236a1.543,1.543,0,0,0,.2-.873c-.069-.118.451-.255.549-.4a2.4,2.4,0,0,1,.9-.481C388.608,159.3,388.715,158.727,388.49,158.756Z" transform="translate(91.672 -58.918)"/><path class="q" d="M390.022,158.838c-.294-.1-.872.216-.793.393s-.48-.226-.862,0-.48.864-.3.981a1.323,1.323,0,0,1,.3.726c0,.108.744,0,.931-.128s.166.54,0,.726.069.569.264.6.49.51.7.51.568-.814.656-1.129.784-.059,1.107,0,.431-1.119.088-1.305-.784-.088-.979-.226a1.116,1.116,0,0,0-.549-.294C390.453,159.643,390.3,158.926,390.022,158.838Z" transform="translate(95.371 -58.47)"/><path class="q" d="M392.3,159.5a1.957,1.957,0,0,0,1.332-.52c.147-.137-1.567-.481-2.214-.5s-1.175.069-1.166.2A6.379,6.379,0,0,0,392.3,159.5Z" transform="translate(95.892 -58.55)"/><path class="q" d="M383.55,171.85c-.147-.059-.225.5-.2.716s.558.186.784.157a.441.441,0,0,0,.382-.4c0-.186-.323-.981-.451-.981S383.707,171.909,383.55,171.85Z" transform="translate(94.311 -55.576)"/><path class="q" d="M385.384,166.573c-.117-.206-.979-.186-1.224-.2a2.593,2.593,0,0,1-.979-.373c-.118-.147-.225.54-.421.628s.1.226.186.157,0,.353-.1.5.588.245.666.471a.568.568,0,0,0,.627.314,7.587,7.587,0,0,0,.979-.334C385.3,167.721,385.492,166.779,385.384,166.573Z" transform="translate(94.161 -56.814)"/><path class="q" d="M400.522,162.629c.3-.314,1.557-.726,1.695-1.04a.4.4,0,0,0-.206-.579c-.137,0-.284.167-.313.216s-1.479.393-1.959.6a5.308,5.308,0,0,0-1.136.736,18.063,18.063,0,0,0-.6,1.776c-.108.167.48.746.735.9a.978.978,0,0,0,.715.049c.108,0-.127-1.03-.264-1.374S400.219,162.963,400.522,162.629Z" transform="translate(97.663 -57.964)"/><path class="q" d="M398.8,159.434c.47.471.725-.206,1.244-.147C400.034,158.335,398.751,158.659,398.8,159.434Z" transform="translate(97.847 -58.498)"/><path class="q" d="M406.292,159.48c0,.177,1.312.324,1.694.255s-.078-.677-.646-.638S406.3,159.343,406.292,159.48Z" transform="translate(99.562 -58.406)"/><path class="q" d="M367.255,167.51c-.137.137,0,.785.245.8s.686-.981.98-.785.539.285.49.177a9.626,9.626,0,0,0-1.1-.589C367.794,167.048,367.392,167.441,367.255,167.51Z" transform="translate(90.615 -56.554)"/><path class="q" d="M370,185.42c0,.108.578.1.676-.088s0-.314-.118-.314S370,185.312,370,185.42Z" transform="translate(91.256 -52.414)"/><path class="q" d="M368.449,184.809c.284,0,.147.393.215.559s.725.285.862.392.48-.2.744-.167-.088-.922-.539-.893-.793-.4-.9-.451a7.267,7.267,0,0,1-.764-.481,6.259,6.259,0,0,0-1.665-.226,1.243,1.243,0,0,0-.862.52c-.069.137.607.226.793.118a1.956,1.956,0,0,1,1.273.334A.978.978,0,0,0,368.449,184.809Z" transform="translate(90.234 -52.755)"/><path class="q" d="M366.926,185.383c0,.108.588,0,.725.049s.137-.1,0-.216S366.926,185.275,366.926,185.383Z" transform="translate(90.552 -52.377)"/><path class="q" d="M367.312,182.9c-.147-.059-.274.186-.274.294a.2.2,0,0,0,.186.206C367.322,183.419,367.469,182.967,367.312,182.9Z" transform="translate(90.578 -52.906)"/><path class="q" d="M368.325,183.015a.6.6,0,0,0-.372-.206c-.078,0-.137.2-.118.432S368.4,183.123,368.325,183.015Z" transform="translate(90.759 -52.924)"/><path class="q" d="M369.106,184.276c.235-.108.264-.393.127-.373s-.4-.412-.558-.471-.274.255-.274.393.088.226.186.2S368.861,184.345,369.106,184.276Z" transform="translate(90.89 -52.782)"/><path class="q" d="M422.212,191.587c-.127.059-.715.128-.784,0s-.2.236-.323.294-.059.363.127.265.686.245,1.146.53c.088-.451.167-.9.245-1.354C422.457,191.43,422.29,191.548,422.212,191.587Z" transform="translate(102.938 -50.957)"/><path class="q" d="M370.182,161.449s-.206.079-.137.157S370.251,161.527,370.182,161.449Z" transform="translate(91.263 -57.863)"/><path class="q" d="M373.842,172.217s-.206.079-.147.157S373.842,172.3,373.842,172.217Z" transform="translate(92.099 -55.373)"/><rect class="w" width="18.189" height="7.213" transform="translate(549.166 146.783)"/><rect class="w" width="18.189" height="23.541" transform="translate(578.247 130.454)"/><rect class="w" width="18.189" height="58.849" transform="translate(607.337 95.147)"/><rect class="w" width="18.199" height="94.745" transform="translate(636.417 59.261)"/><path class="w" d="M467.89,0l6.739,8.773,6.749,8.773H454.393l6.749-8.773Z" transform="translate(177.675 41.911)"/><path class="s" d="M230.727,265.884H207.514a1.864,1.864,0,0,1,0-3.729h23.213a1.864,1.864,0,0,1,0,3.729Z" transform="translate(53.64 -34.581)"/><path class="w" d="M193.083,221.827a28.912,28.912,0,0,1,57.789,0c0,.981-.7,14.337-11.587,28.379-3.183,4.239-2.664,12.757-2.635,12.757H207.237s.6-8.528-2.566-12.757C193.759,236.144,193.083,222.769,193.083,221.827Z" transform="translate(50.763 -50.355)"/><path class="r" d="M234.06,250.024v15.141a1.873,1.873,0,0,1-1.871,1.874H206.527a1.882,1.882,0,0,1-1.871-1.874V250.024Z" transform="translate(53.412 -37.386)"/><path class="s" d="M204.379,252.968h30.628a1.492,1.492,0,0,0,0-2.944H204.379a1.492,1.492,0,0,0,0,2.944Z" transform="translate(53.063 -37.386)"/><path class="s" d="M235.018,254.027H204.39a1.482,1.482,0,0,0,0,2.944h30.628a1.481,1.481,0,1,0,0-2.944Z" transform="translate(53.051 -36.463)"/><path class="s" d="M235.018,258.044H204.39a1.482,1.482,0,0,0,0,2.944h30.628a1.481,1.481,0,1,0,0-2.944Z" transform="translate(53.051 -35.534)"/></g><path class="t" d="M104.951,404.524l-1.822-2.228c.059-.049,1.528-1.256,4.417-3.484l1.753,2.277C106.45,403.288,104.961,404.5,104.951,404.524Zm8.756-6.781-1.714-2.306c1.44-1.079,2.938-2.188,4.476-3.307l1.694,2.326C116.636,395.565,115.137,396.674,113.707,397.743Zm8.943-6.535-1.665-2.336c1.43-.981,2.938-2.1,4.535-3.219l1.645,2.355Zm9.06-6.349-1.626-2.375c1.469-.981,3.007-2.061,4.594-3.13l1.606,2.385c-1.587,1.07-3.1,2.11-4.574,3.121Zm9.168-6.212-1.587-2.385q2.253-1.5,4.633-3.062l1.577,2.4c-1.616,1.03-3.124,2.051-4.623,3.042Zm9.256-6.055-1.548-2.424,4.682-2.993,1.528,2.434q-2.38,1.521-4.662,2.983Zm9.344-5.937-1.518-2.434c1.548-.981,3.115-1.963,4.721-2.944l1.5,2.443Zm9.422-5.8-1.508-2.463,4.75-2.865L173.612,358Zm9.5-5.682-1.459-2.473q2.37-1.393,4.8-2.807l1.44,2.483Zm9.569-5.564-1.43-2.492,4.829-2.748,1.41,2.5Zm9.628-5.446-1.391-2.512,4.9-2.679,1.381,2.512Zm9.7-5.328-1.361-2.522,4.9-2.63,1.352,2.532Zm9.795-5.211-1.332-2.542c1.616-.854,3.262-1.717,4.9-2.571l1.313,2.551Zm9.795-5.1-1.3-2.551c1.636-.844,3.281-1.678,4.9-2.522l1.293,2.571Zm9.883-4.985-1.273-2.571,4.966-2.453,1.264,2.571Zm9.932-4.906-1.244-2.591,5-2.4,1.234,2.6q-2.527,1.237-4.956,2.434Zm9.991-4.769-1.224-2.6,5.035-2.345,1.2,2.61Zm10.04-4.642-1.2-2.542,5.054-2.286,1.175,2.62Zm10.089-4.534-1.156-2.63,5.074-2.237,1.146,2.64q-2.566,1.148-5.074,2.257Zm10.137-4.426-1.126-2.64,5.1-2.178,1.117,2.65q-2.576,1.119-5.1,2.208Zm10.186-4.308-1.1-2.659,5.123-2.12,1.087,2.659Zm10.235-4.2-1.068-2.669,5.152-2.061,1.058,2.669Zm10.284-4.082-1.038-2.679,5.172-1.963,1.028,2.679Zm10.363-3.935-.979-2.689,5.191-1.963.979,2.689Zm10.373-3.856-.979-2.7,5.211-1.884.98,2.7Zm10.412-3.739-.979-2.708,5.24-1.835.979,2.718Zm10.451-3.621-.931-2.728,5.26-1.766.911,2.718c-1.8.608-3.555,1.178-5.289,1.776Zm10.48-3.513-.891-2.728,5.279-1.717.872,2.728Zm10.529-3.4-.862-2.738,5.3-1.658.842,2.748c-1.812.52-3.575,1.1-5.328,1.649Zm10.568-3.278-.833-2.748,5.309-1.6.823,2.757c-1.822.52-3.595,1.06-5.348,1.59Zm10.6-3.16-.8-2.757,5.328-1.541.784,2.767c-1.822.5-3.595,1.021-5.358,1.531Zm10.637-3.042-.774-2.767,5.348-1.482.754,2.777c-1.832.481-3.614.991-5.377,1.472Zm10.666-2.944-.744-2.777c1.783-.471,3.565-.981,5.367-1.413l.725,2.777Zm10.7-2.807-.715-2.777,5.377-1.364.7,2.787ZM444.16,247.7l-.676-2.8,5.387-1.3.666,2.8q-2.733.648-5.426,1.315Zm10.774-2.571-.646-2.8c1.792-.412,3.595-.834,5.4-1.236l.568,2.777Zm10.774-2.443-.617-2.807,5.416-1.178.607,2.807Zm10.774-2.326-.588-2.807c1.8-.383,3.614-.746,5.436-1.119l.568,2.816Zm10.833-2.2-.549-2.816c1.8-.363,3.624-.707,5.436-1.06l.539,2.826Zm10.862-2.08-.519-2.826,5.456-.981.509,2.826Zm10.882-1.963-.49-2.836,5.465-.932.48,2.836ZM520,232.316l-.46-2.836,5.475-.873.441,2.836Zm10.921-1.717-.421-2.836,5.485-.814.411,2.846Zm10.95-1.58-.4-2.846,5.495-.756.382,2.856c-1.881.235-3.693.491-5.514.746Zm10.96-1.462-.362-2.856,5.495-.687.353,2.856Zm10.97-1.344-.323-2.856,5.5-.618.313,2.856ZM574.792,225l-.294-2.856,5.514-.559.284,2.856Zm11.009-1.089-.264-2.856c1.832-.177,3.673-.334,5.524-.5l.245,2.865Zm11.009-.981-.225-2.865,5.524-.432.215,2.865Zm11.029-.834-.2-2.865,5.514-.373.186,2.865Zm11.029-.716-.176-2.865h.255l.167,2.875Z" transform="translate(30.174 -44.671)"/><path class="t" d="M488.027,108.97l-27.19,16.447,6.308-14.474L458.251,97.9Z" transform="translate(178.558 64.544)"/><path class="x" d="M193.083,222.026c0,.981.676,14.317,11.587,28.379,3.164,4.239,2.586,12.757,2.566,12.757h14.751V193.067A28.921,28.921,0,0,0,193.083,222.026Z" transform="translate(50.763 -50.553)"/></g></g></svg>