<svg xmlns="http://www.w3.org/2000/svg" xmlns:xlink="http://www.w3.org/1999/xlink" width="69" height="55" viewBox="0 0 69 55"><defs><style>.a,.c{fill:#e90000;}.a{stroke:#707070;}.b{clip-path:url(#a);}</style><clipPath id="a"><rect class="a" width="69" height="55" transform="translate(102 786)"/></clipPath></defs><g class="b" transform="translate(-102 -786)"><g transform="translate(109 786)"><path class="c" d="M21.917,9.7a.917.917,0,0,0-.743-.8L18.847,8.47a7.557,7.557,0,0,0-.513-1.228L19.681,5.3a.917.917,0,0,0,0-1.091,11.056,11.056,0,0,0-1.833-1.833.917.917,0,0,0-1.091,0l-2,1.293a7.557,7.557,0,0,0-1.228-.513L13.1.825a.917.917,0,0,0-.8-.742,10.31,10.31,0,0,0-2.6,0,.917.917,0,0,0-.8.742L8.47,3.153a7.557,7.557,0,0,0-1.228.513L5.3,2.319a.917.917,0,0,0-1.091,0A11.052,11.052,0,0,0,2.374,4.152a.917.917,0,0,0,0,1.091l1.292,2A7.557,7.557,0,0,0,3.153,8.47L.825,8.9a.917.917,0,0,0-.742.8,10.31,10.31,0,0,0,0,2.6.917.917,0,0,0,.742.8l2.328.431a7.557,7.557,0,0,0,.513,1.228L2.319,16.7a.917.917,0,0,0,0,1.091,11.056,11.056,0,0,0,1.833,1.833.917.917,0,0,0,1.091,0l2-1.293a7.557,7.557,0,0,0,1.228.513L8.9,21.175a.917.917,0,0,0,.8.743,10.31,10.31,0,0,0,2.6,0,.917.917,0,0,0,.8-.743l.431-2.328a7.557,7.557,0,0,0,1.228-.513L16.7,19.681a.917.917,0,0,0,1.091,0,11.056,11.056,0,0,0,1.833-1.833.917.917,0,0,0,0-1.091l-1.293-2a7.557,7.557,0,0,0,.513-1.228l2.328-.431a.917.917,0,0,0,.743-.8A10.31,10.31,0,0,0,21.917,9.7Zm-1.733,1.32v.422l-2.2.4a.917.917,0,0,0-.724.688,6.209,6.209,0,0,1-.761,1.833.917.917,0,0,0,0,1L17.765,17.2a6.093,6.093,0,0,1-.6.6l-1.833-1.265a.917.917,0,0,0-1,0,6.209,6.209,0,0,1-1.833.761.917.917,0,0,0-.687.724l-.394,2.154h-.843l-.4-2.2a.917.917,0,0,0-.687-.724,6.209,6.209,0,0,1-1.833-.761.917.917,0,0,0-1,0L4.822,17.747a6.093,6.093,0,0,1-.6-.6l1.265-1.833a.917.917,0,0,0,0-1,6.209,6.209,0,0,1-.761-1.833.917.917,0,0,0-.724-.687l-2.173-.376v-.843l2.209-.4a.917.917,0,0,0,.724-.687,6.209,6.209,0,0,1,.761-1.833A.917.917,0,0,0,5.5,6.673L4.235,4.84a6.093,6.093,0,0,1,.6-.6L6.673,5.5a.917.917,0,0,0,1,0,6.209,6.209,0,0,1,1.833-.761.917.917,0,0,0,.688-.724l.385-2.182h.843l.4,2.2a.917.917,0,0,0,.688.724,6.209,6.209,0,0,1,1.833.761.917.917,0,0,0,1,0l1.833-1.265a6.093,6.093,0,0,1,.6.6L16.5,6.673a.917.917,0,0,0,0,1,6.209,6.209,0,0,1,.761,1.833.917.917,0,0,0,.724.688l2.2.4Z"/><path class="c" d="M54.917,26.2a.917.917,0,0,0-.743-.8l-2.328-.431a7.557,7.557,0,0,0-.513-1.228L52.681,21.8a.917.917,0,0,0,0-1.091,11.057,11.057,0,0,0-1.833-1.833.917.917,0,0,0-1.091,0l-2,1.293a7.557,7.557,0,0,0-1.228-.513L46.1,17.325a.917.917,0,0,0-.8-.743,10.31,10.31,0,0,0-2.6,0,.917.917,0,0,0-.8.743l-.431,2.328a7.557,7.557,0,0,0-1.228.513L38.3,18.819a.917.917,0,0,0-1.091,0,11.057,11.057,0,0,0-1.833,1.833.917.917,0,0,0,0,1.091l1.292,2a7.557,7.557,0,0,0-.513,1.228l-2.328.431a.917.917,0,0,0-.743.8,10.31,10.31,0,0,0,0,2.6.917.917,0,0,0,.743.8l2.328.431a7.556,7.556,0,0,0,.513,1.228L35.319,33.2a.917.917,0,0,0,0,1.091,11.057,11.057,0,0,0,1.833,1.833.917.917,0,0,0,1.091,0l2-1.292a7.557,7.557,0,0,0,1.228.513l.431,2.328a.917.917,0,0,0,.8.743,10.31,10.31,0,0,0,2.6,0,.917.917,0,0,0,.8-.743l.431-2.328a7.557,7.557,0,0,0,1.228-.513L49.7,36.181a.917.917,0,0,0,1.091,0,11.057,11.057,0,0,0,1.833-1.833.917.917,0,0,0,0-1.091l-1.292-2a7.557,7.557,0,0,0,.513-1.228l2.328-.431a.917.917,0,0,0,.743-.8A10.31,10.31,0,0,0,54.917,26.2Zm-1.7,1.3c0,.138-.055.275-.055.422l-2.2.4a.916.916,0,0,0-.724.688,6.208,6.208,0,0,1-.761,1.833.917.917,0,0,0,0,1l1.265,1.833a6.093,6.093,0,0,1-.6.6l-1.833-1.265a.917.917,0,0,0-1,0,6.209,6.209,0,0,1-1.833.761.917.917,0,0,0-.687.724l-.376,2.172h-.843l-.4-2.2a.916.916,0,0,0-.687-.724,6.209,6.209,0,0,1-1.833-.761.917.917,0,0,0-1,0l-1.833,1.265a6.093,6.093,0,0,1-.6-.6l1.265-1.833a.917.917,0,0,0,0-1,6.209,6.209,0,0,1-.761-1.833.917.917,0,0,0-.724-.687l-2.172-.376v-.843l2.2-.4a.917.917,0,0,0,.724-.687,6.209,6.209,0,0,1,.761-1.833.917.917,0,0,0,0-1l-1.265-1.833a6.092,6.092,0,0,1,.6-.6l1.833,1.265a.917.917,0,0,0,1,0,6.209,6.209,0,0,1,1.833-.761.916.916,0,0,0,.688-.724l.4-2.2h.843l.4,2.2a.917.917,0,0,0,.688.724,6.209,6.209,0,0,1,1.833.761.917.917,0,0,0,1,0l1.833-1.265a6.093,6.093,0,0,1,.6.6l-1.265,1.833a.917.917,0,0,0,0,1,6.209,6.209,0,0,1,.761,1.833.917.917,0,0,0,.724.688l2.2.4C53.222,27.225,53.222,27.362,53.222,27.5Z"/><path class="c" d="M21.917,42.7a.917.917,0,0,0-.743-.8l-2.328-.431a7.557,7.557,0,0,0-.513-1.228L19.681,38.3a.917.917,0,0,0,0-1.091,11.056,11.056,0,0,0-1.833-1.833.917.917,0,0,0-1.091,0l-2,1.292a7.557,7.557,0,0,0-1.228-.513L13.1,33.825a.917.917,0,0,0-.8-.743,10.31,10.31,0,0,0-2.6,0,.917.917,0,0,0-.8.743L8.47,36.153a7.557,7.557,0,0,0-1.228.513L5.3,35.319a.917.917,0,0,0-1.091,0,11.052,11.052,0,0,0-1.833,1.833.917.917,0,0,0,0,1.091l1.293,2a7.557,7.557,0,0,0-.513,1.228L.825,41.9a.917.917,0,0,0-.742.8,10.31,10.31,0,0,0,0,2.6.917.917,0,0,0,.742.8l2.328.431a7.557,7.557,0,0,0,.513,1.228L2.319,49.7a.917.917,0,0,0,0,1.091,11.056,11.056,0,0,0,1.833,1.833.917.917,0,0,0,1.091,0l2-1.292a7.557,7.557,0,0,0,1.228.513L8.9,54.175a.917.917,0,0,0,.8.743,10.31,10.31,0,0,0,2.6,0,.917.917,0,0,0,.8-.743l.431-2.328a7.557,7.557,0,0,0,1.228-.513L16.7,52.681a.917.917,0,0,0,1.091,0,11.056,11.056,0,0,0,1.833-1.833.917.917,0,0,0,0-1.091l-1.293-2a7.557,7.557,0,0,0,.513-1.228l2.328-.431a.917.917,0,0,0,.743-.8A10.31,10.31,0,0,0,21.917,42.7Zm-1.7,1.3v.422l-2.2.4a.916.916,0,0,0-.724.688,6.209,6.209,0,0,1-.761,1.833.917.917,0,0,0,0,1L17.8,50.178a6.093,6.093,0,0,1-.6.6l-1.833-1.265a.917.917,0,0,0-1,0,6.209,6.209,0,0,1-1.833.761.917.917,0,0,0-.687.724l-.431,2.172h-.843l-.4-2.2a.917.917,0,0,0-.687-.724,6.209,6.209,0,0,1-1.833-.761.917.917,0,0,0-1,0L4.822,50.747a6.093,6.093,0,0,1-.6-.6l1.265-1.833a.917.917,0,0,0,0-1,6.209,6.209,0,0,1-.761-1.833.916.916,0,0,0-.724-.687l-2.173-.376v-.843l2.2-.4a.916.916,0,0,0,.724-.687,6.209,6.209,0,0,1,.761-1.833.917.917,0,0,0,0-1L4.253,37.822a6.093,6.093,0,0,1,.6-.6l1.833,1.265a.917.917,0,0,0,1,0,6.209,6.209,0,0,1,1.833-.761.917.917,0,0,0,.688-.724l.4-2.2h.843l.4,2.2a.917.917,0,0,0,.688.724,6.209,6.209,0,0,1,1.833.761.917.917,0,0,0,1,0l1.833-1.265a6.093,6.093,0,0,1,.6.6l-1.265,1.833a.917.917,0,0,0,0,1,6.209,6.209,0,0,1,.761,1.833.916.916,0,0,0,.724.688l2.2.4Z"/><rect class="c" width="1.833" height="1.833" transform="translate(21.608 7.248) rotate(-64.519)"/><rect class="c" width="1.833" height="1.833" transform="matrix(0.43, -0.903, 0.903, 0.43, 31.538, 11.971)"/><rect class="c" width="1.833" height="1.833" transform="matrix(0.43, -0.903, 0.903, 0.43, 24.916, 8.826)"/><rect class="c" width="1.833" height="1.833" transform="matrix(0.43, -0.903, 0.903, 0.43, 38.156, 15.125)"/><rect class="c" width="1.833" height="1.833" transform="matrix(0.43, -0.903, 0.903, 0.43, 34.852, 13.548)"/><rect class="c" width="1.833" height="1.833" transform="matrix(0.43, -0.903, 0.903, 0.43, 28.233, 10.395)"/><path class="c" d="M27.014,27.252l-.88-1.6-1.6.88.321.587L24.2,28.472l1.659.788.788-1.65-.147-.073Z"/><rect class="c" width="1.833" height="1.833" transform="translate(17.577 25.33) rotate(-64.519)"/><rect class="c" width="1.833" height="1.833" transform="translate(27.515 30.055) rotate(-64.519)"/><rect class="c" width="1.833" height="1.833" transform="translate(30.829 31.633) rotate(-64.519)"/><rect class="c" width="1.833" height="1.833" transform="translate(14.272 23.753) rotate(-64.519)"/><rect class="c" width="1.833" height="1.833" transform="translate(31.195 42.482) rotate(-28.81)"/><rect class="c" width="1.833" height="1.833" transform="matrix(0.876, -0.482, 0.482, 0.876, 37.627, 38.94)"/><rect class="c" width="1.833" height="1.833" transform="matrix(0.876, -0.482, 0.482, 0.876, 27.991, 44.239)"/><rect class="c" width="1.833" height="1.833" transform="translate(34.417 40.709) rotate(-28.803)"/><rect class="c" width="1.833" height="1.833" transform="translate(21.558 47.779) rotate(-28.81)"/><rect class="c" width="1.833" height="1.833" transform="matrix(0.876, -0.482, 0.482, 0.876, 24.77, 46.011)"/><path class="c" d="M22.917,27.417l-.321.174.742-1.558-1.659-.788-.788,1.65,1.595.761-1.173.642.88,1.6,1.613-.88Z"/><rect class="c" width="1.833" height="1.833" transform="translate(30.946 22.995) rotate(-28.81)"/><rect class="c" width="1.833" height="1.833" transform="matrix(0.876, -0.482, 0.482, 0.876, 14.886, 31.825)"/><rect class="c" width="1.833" height="1.833" transform="matrix(0.876, -0.482, 0.482, 0.876, 18.091, 30.071)"/><rect class="c" width="1.833" height="1.833" transform="translate(27.741 24.762) rotate(-28.81)"/><path class="c" d="M11,6.417A4.583,4.583,0,1,0,15.583,11,4.583,4.583,0,0,0,11,6.417Zm0,7.333A2.75,2.75,0,1,1,13.75,11,2.75,2.75,0,0,1,11,13.75Z"/><path class="c" d="M44,22.917A4.583,4.583,0,1,0,48.583,27.5,4.583,4.583,0,0,0,44,22.917Zm0,7.333a2.75,2.75,0,1,1,2.75-2.75A2.75,2.75,0,0,1,44,30.25Z"/><path class="c" d="M11,39.417A4.583,4.583,0,1,0,15.583,44,4.583,4.583,0,0,0,11,39.417Zm0,7.333A2.75,2.75,0,1,1,13.75,44,2.75,2.75,0,0,1,11,46.75Z"/></g></g></svg>