<svg xmlns="http://www.w3.org/2000/svg" xmlns:xlink="http://www.w3.org/1999/xlink" width="67" height="54" viewBox="0 0 67 54"><defs><style>.a,.c{fill:#e90000;}.a{stroke:#707070;}.b{clip-path:url(#a);}</style><clipPath id="a"><rect class="a" width="67" height="54" transform="translate(102 1354)"/></clipPath></defs><g class="b" transform="translate(-102 -1354)"><g transform="translate(109.136 1354)"><path class="c" d="M27.553,6.475A2.551,2.551,0,1,0,25,9.079,2.581,2.581,0,0,0,27.553,6.475Zm-3.4,0a.85.85,0,1,1,.85.868A.86.86,0,0,1,24.152,6.475Z" transform="translate(1.356 -0.399)"/><path class="c" d="M5.146,32.089a2.639,2.639,0,0,0-.934,3.558,2.543,2.543,0,0,0,2.214,1.3A2.506,2.506,0,0,0,7.7,36.6a2.639,2.639,0,0,0,.934-3.558,2.527,2.527,0,0,0-3.484-.954Zm1.7,3.008a.841.841,0,0,1-1.161-.318A.879.879,0,0,1,6,33.593a.842.842,0,0,1,1.161.318A.879.879,0,0,1,6.847,35.1Z" transform="translate(-0.468 2.977)"/><path class="c" d="M44.858,32.089a2.528,2.528,0,0,0-3.484.954,2.638,2.638,0,0,0,.934,3.558h0a2.5,2.5,0,0,0,1.27.347,2.544,2.544,0,0,0,2.214-1.3A2.638,2.638,0,0,0,44.858,32.089Zm-.538,2.69a.84.84,0,0,1-1.161.318.878.878,0,0,1-.311-1.186.839.839,0,0,1,1.161-.318A.879.879,0,0,1,44.32,34.779Z" transform="translate(3.18 2.977)"/><path class="c" d="M50.512,32.834A5.794,5.794,0,0,0,46,32.228a5.91,5.91,0,0,0-3.346,2.405l-6.167-3.149V23.878l9.422-4.81a4.158,4.158,0,0,0,5.457,1.088,4.3,4.3,0,0,0,1.981-2.635,4.388,4.388,0,0,0-.425-3.293,4.238,4.238,0,0,0-2.581-2.021,4.139,4.139,0,0,0-3.226.433,4.3,4.3,0,0,0-1.981,2.635,4.377,4.377,0,0,0,.015,2.24l-8.662,4.422V16.4h-8.5V12.856a6.041,6.041,0,0,0,5.1-6.006,5.953,5.953,0,1,0-11.9,0,6.041,6.041,0,0,0,5.1,6.006V16.4h-8.5v5.538L9.116,17.515a4.377,4.377,0,0,0,.015-2.24,4.3,4.3,0,0,0-1.981-2.635,4.139,4.139,0,0,0-3.226-.433,4.238,4.238,0,0,0-2.581,2.021,4.388,4.388,0,0,0-.425,3.293A4.3,4.3,0,0,0,2.9,20.156a4.161,4.161,0,0,0,5.456-1.088l9.423,4.809v7.606L11.61,34.631a5.907,5.907,0,0,0-3.346-2.405,5.8,5.8,0,0,0-4.516.607,6.155,6.155,0,0,0-2.179,8.3A5.933,5.933,0,0,0,6.733,44.17,5.818,5.818,0,0,0,9.7,43.357a6.146,6.146,0,0,0,2.674-7.175l5.406-2.758v5.54h8.5V46a4.252,4.252,0,1,0,1.7,0V38.965h8.5v-5.54l5.4,2.758a6.146,6.146,0,0,0,2.674,7.175,5.823,5.823,0,0,0,2.965.813,5.934,5.934,0,0,0,5.164-3.037,6.153,6.153,0,0,0-2.178-8.3Zm-3.74-17.11a2.582,2.582,0,0,1,1.189-1.581,2.494,2.494,0,0,1,1.271-.348,2.542,2.542,0,0,1,2.213,1.3,2.638,2.638,0,0,1,.255,1.975,2.582,2.582,0,0,1-1.189,1.581,2.524,2.524,0,0,1-3.484-.953,2.634,2.634,0,0,1-.255-1.975ZM22.879,6.85a4.252,4.252,0,1,1,8.5,0,4.252,4.252,0,1,1-8.5,0ZM7.234,17.7a2.524,2.524,0,0,1-3.484.953,2.582,2.582,0,0,1-1.189-1.581A2.634,2.634,0,0,1,2.817,15.1,2.542,2.542,0,0,1,5.03,13.8a2.494,2.494,0,0,1,1.271.348,2.582,2.582,0,0,1,1.189,1.581A2.634,2.634,0,0,1,7.234,17.7ZM8.85,41.854a4.208,4.208,0,0,1-5.807-1.588A4.4,4.4,0,0,1,4.6,34.338,4.141,4.141,0,0,1,7.825,33.9a4.237,4.237,0,0,1,2.581,2.022A4.395,4.395,0,0,1,8.85,41.854Zm20.831,8.394a2.551,2.551,0,1,1-2.551-2.6A2.581,2.581,0,0,1,29.681,50.248Zm5.1-13.02h-15.3v-19.1h15.3Zm16.435,3.037a4.207,4.207,0,0,1-5.807,1.588,4.4,4.4,0,0,1-1.556-5.928A4.237,4.237,0,0,1,46.436,33.9a4.146,4.146,0,0,1,3.226.434,4.4,4.4,0,0,1,1.556,5.928Z" transform="translate(-0.772 -0.774)"/><path class="c" d="M31.258,24h-5.1v1.736h-3.4v1.736h-3.4V32.68h11.9Zm-10.2,5.208h1.7v1.736h-1.7Zm3.4,1.736V27.472h1.7v3.472Zm5.1,0h-1.7V25.736h1.7Z" transform="translate(1.052 2.039)"/><path class="c" d="M19.355,17.806h1.7v1.736h-1.7Z" transform="translate(1.052 1.289)"/><path class="c" d="M22.452,17.806h8.5v1.736h-8.5Z" transform="translate(1.356 1.289)"/><path class="c" d="M19.355,20.9h11.9v1.736h-11.9Z" transform="translate(1.052 1.664)"/></g></g></svg>