<svg xmlns="http://www.w3.org/2000/svg" xmlns:xlink="http://www.w3.org/1999/xlink" width="71" height="58" viewBox="0 0 71 58">
  <defs>
    <clipPath id="clip-path">
      <rect id="Rectangle_751" data-name="Rectangle 751" width="71" height="58" transform="translate(328 449)" fill="#707070" stroke="#707070" stroke-width="1"/>
    </clipPath>
  </defs>
  <g id="Mask_Group_39" data-name="Mask Group 39" transform="translate(-328 -449)" clip-path="url(#clip-path)">
    <g id="risk_1_" data-name="risk (1)" transform="translate(328 442.5)">
      <path id="Path_413" data-name="Path 413" d="M37.651,29.176a2.483,2.483,0,0,0-4.3,0L17.533,56.57A2.483,2.483,0,0,0,19.684,60.3H45a1.04,1.04,0,0,0,0-2.08H19.684a.4.4,0,0,1-.349-.605L35.15,30.216a.4.4,0,0,1,.7,0L51.665,57.61a.4.4,0,0,1-.349.605H49.854a1.04,1.04,0,0,0,0,2.08h1.461a2.483,2.483,0,0,0,2.151-3.725Z" fill="#707070"/>
      <path id="Path_414" data-name="Path 414" d="M35.5,48.677a2.647,2.647,0,0,0,2.643-2.5l.355-6.489a3,3,0,1,0-6,0l.355,6.489a2.647,2.647,0,0,0,2.643,2.5Zm0-10.077a.922.922,0,0,1,.921.973l-.355,6.489a.567.567,0,0,1-1.132,0l-.355-6.489A.922.922,0,0,1,35.5,38.6Z" fill="#707070"/>
      <path id="Path_415" data-name="Path 415" d="M35.5,56.352a3.074,3.074,0,1,0-3.074-3.074A3.078,3.078,0,0,0,35.5,56.352Zm0-4.069a.994.994,0,1,1-.994.994A1,1,0,0,1,35.5,52.283Z" fill="#707070"/>
      <path id="Path_416" data-name="Path 416" d="M66.061,28.131A35.553,35.553,0,0,0,25.537,12.122a1.04,1.04,0,0,0,.583,2,33.537,33.537,0,0,1,25.038,2.554l-4.374,7.576a24.66,24.66,0,0,0-22.568,0l-4.374-7.576c.61-.324,1.231-.63,1.856-.913a1.04,1.04,0,0,0-.86-1.894A35.5,35.5,0,0,0,13.3,18.5l-.774-2.888a1.7,1.7,0,0,0-2.842-.761L4.148,20.388a1.7,1.7,0,0,0,.762,2.842L7.8,24A35.461,35.461,0,0,0,0,46.2a1.04,1.04,0,0,0,1.04,1.04H11.851a1.04,1.04,0,0,0,1.04-1.04,22.609,22.609,0,0,1,45.218,0,1.04,1.04,0,0,0,1.04,1.04H69.96A1.04,1.04,0,0,0,71,46.2a35.464,35.464,0,0,0-4.939-18.074ZM10.687,16.79l1.684,6.285L6.086,21.391Zm.146,28.374H2.1a33.376,33.376,0,0,1,7.909-20.569l2.465.66a1.7,1.7,0,0,0,2.08-2.08l-.66-2.465A33.62,33.62,0,0,1,18.036,17.7l4.373,7.574A24.78,24.78,0,0,0,10.833,45.164Zm49.334,0A24.779,24.779,0,0,0,48.591,25.279L52.964,17.7A33.539,33.539,0,0,1,68.9,45.164H60.167Z" fill="#707070"/>
      <path id="Path_417" data-name="Path 417" d="M6.315,50.18a5.094,5.094,0,0,0-1.048.109A1.04,1.04,0,0,0,5.7,52.324a2.975,2.975,0,1,1-2.325,2.463,1.04,1.04,0,0,0-2.057-.311,5.058,5.058,0,1,0,5-4.3Z" fill="#707070"/>
      <path id="Path_418" data-name="Path 418" d="M64.685,50.18a5.058,5.058,0,1,0,5.058,5.058A5.064,5.064,0,0,0,64.685,50.18Zm0,8.036a2.978,2.978,0,1,1,2.978-2.978A2.981,2.981,0,0,1,64.685,58.216Z" fill="#707070"/>
    </g>
  </g>
</svg>
